<svg width="597" height="528" viewBox="0 0 597 528" fill="none" xmlns="http://www.w3.org/2000/svg">
<g filter="url(#filter0_d_274_8426)">
<rect width="569.835" height="528" transform="matrix(-1 0 0 1 596.438 0)" fill="url(#paint0_linear_274_8426)"/>
<path d="M154.162 225.7L177.877 212.575L170.506 224.883L192.117 213.308L190.94 211.108L177.301 218.4L184.813 205.883L155.598 222.058L150.723 207.133L182.726 196.733L181.967 194.35L147.559 205.533L154.162 225.7Z" fill="white"/>
<path d="M128.58 376.786L172.453 376.503L179.089 376.461L190.625 386.078L186.635 392.269L176.71 407.686L164.899 400.103L167.253 395.186L159.206 396.444L128.58 376.786ZM171.568 391.986L168.112 399.194L175.959 404.195L184.899 390.303L187.319 386.544L178.188 378.936H174.69L137.019 379.178L159.757 393.769L171.568 391.986Z" fill="white"/>
<path d="M285.025 267.203L295.876 346.371L310.901 421.371L366.828 416.371L334.691 328.454L326.761 233.036L259.983 229.703L207.395 292.204L157.311 359.704L201.552 408.871L234.941 313.871L285.025 267.203Z" fill="#B8C3FF"/>
<path d="M332.392 419.457L333.869 418.457L350.197 417.273V417.832L351.031 443.14L336.999 443.615L336.165 438.24L330.263 443.849L293.685 445.124L332.392 419.457ZM337.901 433.182L339.161 441.074L348.485 440.757L347.784 419.982L334.704 420.957L302.433 442.34L329.245 441.432L337.901 433.182Z" fill="white"/>
<path d="M262.075 90.1191C262.081 85.8477 264.804 82.0518 268.852 80.6706C272.901 79.2895 277.381 80.628 280.005 84.0024C282.319 82.4722 285.245 82.1911 287.809 83.2524C289.621 82.3339 291.78 82.4206 293.511 83.4813C295.243 84.5419 296.298 86.4243 296.299 88.4524C296.298 88.9421 296.234 89.4296 296.107 89.9024C298.951 91.0592 300.929 93.6818 301.257 96.7304C301.585 99.779 300.209 102.761 297.676 104.494C299.371 105.8 300.047 108.037 299.358 110.06C298.67 112.084 296.77 113.447 294.629 113.453C294.128 113.455 293.629 113.379 293.152 113.228L293.861 123.486L294.036 125.986L294.337 130.269C294.593 131.73 294.238 133.232 293.354 134.424C292.471 135.616 291.136 136.395 289.662 136.578L277.225 138.136C276.994 138.148 276.763 138.148 276.532 138.136C274.773 138.134 273.125 137.28 272.111 135.846C271.097 134.411 270.844 132.574 271.432 130.919L272.826 126.953L273.761 124.336L274.938 121.003C273.707 120.721 272.573 120.121 271.649 119.261C266.248 114.286 267.417 104.428 268.444 99.4359C264.601 97.936 262.073 94.2378 262.075 90.1191ZM273.761 131.786C273.418 132.739 273.597 133.801 274.232 134.59C274.868 135.38 275.869 135.782 276.874 135.653L289.32 134.095C290.119 133.994 290.841 133.568 291.315 132.918C291.789 132.268 291.973 131.451 291.824 130.661L290.614 113.369C288.444 115.544 282.834 120.636 277.517 121.128L273.761 131.786ZM270.856 100.011C269.921 104.578 268.886 113.344 273.36 117.378C274.031 118.014 274.877 118.434 275.789 118.586C276.17 118.648 276.556 118.667 276.941 118.644C281.899 118.411 287.793 112.628 289.278 111.086L288.894 104.894C286.734 103.713 285.206 101.639 284.721 99.2275H284.554C282.575 99.2264 280.661 98.5235 279.153 97.2442H278.978C277.143 99.0576 274.673 100.088 272.091 100.119C271.69 100.116 271.288 100.09 270.889 100.044L270.856 100.011Z" fill="white"/>
<path d="M370.725 246.58L371.092 249.18L372.887 261.647L372.995 262.405L373.413 261.489L378.922 249.43L380.107 259.405L380.408 261.93L381.635 272.231L403.555 264.622L399.932 255.855L398.98 253.53H398.972L392.929 238.889L391.969 236.572L391.86 236.297L389.548 237.255L389.707 237.639L390.666 239.955L396.576 254.28L397.536 256.605L400.232 263.122L383.755 268.847L382.828 261.172L382.536 258.647L380.867 244.572L380.55 241.947L380.349 240.264L379.306 242.53L377.703 246.064L374.264 253.605L373.463 248.064L373.095 245.464L370.725 246.58Z" fill="white"/>
<path d="M222.329 171.623L258.181 127.256L258.481 126.881L273.782 124.381H273.974L274.391 126.881L272.83 127.139L259.833 129.306L223.782 173.914L177.604 187.248L199.474 223.082L238.322 199.656L257.246 179.123C257.287 171.581 257.112 164.256 256.578 157.564L259.082 157.364C260.451 174.556 259.466 195.698 258.59 214.39C258.356 219.298 258.139 223.965 257.964 228.465C262.521 228.407 275.785 229.115 297.505 230.632C306.119 231.232 315.627 231.932 323.598 232.548C328.657 232.94 331.637 233.173 333.415 233.382C330.602 223.482 316.92 175.364 310.51 154.314L303.156 141.297L305.343 140.064L308.014 144.797L312.814 153.306L331.228 185.939L364.066 249.857L370.744 246.715L373.098 245.465L379.316 242.532L380.552 241.948L389.734 237.64L391.996 236.573L393.665 235.798L357.772 182.056L317.789 128.397L294.082 126.022L293.298 125.947L293.548 123.447H293.907L319.141 125.947L359.742 180.614L397.305 236.79L392.922 238.857L390.627 239.957L380.827 244.573L377.664 246.065L373.423 248.065L371.053 249.182L362.897 253.023L328.974 186.99L316.019 164.056C323.406 188.99 334.533 228.223 336.119 233.807C336.162 233.842 336.198 233.885 336.228 233.932L336.72 234.557L336.361 235.265C336.13 235.722 335.646 235.995 335.134 235.957H335.042H334.124V235.832C332.772 235.682 330.259 235.457 326.937 235.19C309.283 233.765 268.874 231.023 259.007 230.89C258.311 230.855 257.613 230.875 256.92 230.948L255.334 231.315L255.393 229.648C255.576 224.707 255.818 219.59 256.069 214.173C256.545 204.081 257.054 193.256 257.204 182.748L239.917 201.506L198.64 226.423L191.01 213.923L189.708 211.79L180.902 197.348L179.566 195.148L173.765 185.639L222.329 171.623Z" fill="white"/>
<path d="M362.911 279.083L358.837 266.025L372.886 261.65L373.412 261.492L380.09 259.408L382.519 258.65L382.819 261.15L380.39 261.908L361.959 267.642L365.298 278.317L415.315 262.658L411.976 252.075L399.889 255.833L397.494 256.583L396.534 254.258L398.929 253.508L413.612 248.941L417.661 261.917L433.095 257.083L452.469 318.75L363.771 346.517L344.397 284.808L362.911 279.083ZM365.465 343.459L449.38 317.175L431.525 260.242L418.479 264.325L416.091 265.075L366.083 280.725L363.687 281.475L347.61 286.475L365.465 343.459Z" fill="white"/>
<path d="M143.136 447.623H68.0102C68.0102 447.623 49.6462 425.956 66.3407 427.623C83.0353 429.289 102.234 434.289 95.5562 422.623C88.8784 410.956 55.4893 385.956 77.1922 387.622C98.8951 389.289 113.92 404.289 115.59 412.623C117.259 420.956 127.276 408.456 137.293 410.123C147.309 411.789 144.805 420.123 137.293 427.623C129.78 435.123 161.5 432.623 143.136 447.623Z" fill="white"/>
<path d="M353.679 50.0152L413.469 63.4023L400.026 123.126L340.236 109.739L353.679 50.0152Z" fill="#B8C3FF"/>
<path d="M373.261 132.694L382.024 84.6543L426.35 92.7025L452.438 97.4265L439.732 167.286L369.243 154.514L373.261 132.694ZM436.765 162.924L448.119 100.438L425.586 96.3517L385.04 89.0158L376.941 133.518L373.674 151.489L436.765 162.924Z" fill="white"/>
</g>
<defs>
<filter id="filter0_d_274_8426" x="0.00156212" y="-18.6" width="607.036" height="565.2" filterUnits="userSpaceOnUse" color-interpolation-filters="sRGB">
<feFlood flood-opacity="0" result="BackgroundImageFix"/>
<feColorMatrix in="SourceAlpha" type="matrix" values="0 0 0 0 0 0 0 0 0 0 0 0 0 0 0 0 0 0 127 0" result="hardAlpha"/>
<feOffset dx="-8"/>
<feGaussianBlur stdDeviation="9.3"/>
<feComposite in2="hardAlpha" operator="out"/>
<feColorMatrix type="matrix" values="0 0 0 0 0 0 0 0 0 0 0 0 0 0 0 0 0 0 0.25 0"/>
<feBlend mode="normal" in2="BackgroundImageFix" result="effect1_dropShadow_274_8426"/>
<feBlend mode="normal" in="SourceGraphic" in2="effect1_dropShadow_274_8426" result="shape"/>
</filter>
<linearGradient id="paint0_linear_274_8426" x1="1.2671" y1="528" x2="568.568" y2="1.88235e-07" gradientUnits="userSpaceOnUse">
<stop stop-color="#6D83FF"/>
<stop offset="1" stop-color="#AEBAFF"/>
</linearGradient>
</defs>
</svg>
