<svg width="231" height="27" viewBox="0 0 231 27" fill="none" xmlns="http://www.w3.org/2000/svg">
<path d="M25.1641 26.7761V0.00390625H30.7597V12.8153L35.6597 5.81833H42.6149L36.1973 14.9178L44.3853 26.7761H37.4935L30.7597 17.0202V26.7761H25.1641Z" fill="#6D83FF"/>
<path d="M61.8191 23.7049C59.8479 25.7532 57.4725 26.7761 54.6901 26.7761C51.9077 26.7761 49.5317 25.7526 47.5611 23.7049C45.5899 21.6573 44.6055 19.1878 44.6055 16.2972C44.6055 13.4066 45.5905 10.9378 47.5611 8.88953C49.5317 6.84187 51.9077 5.81833 54.6901 5.81833C56.2498 5.81833 57.7456 6.17951 59.1791 6.90246V0.00390625H64.7748V16.2972C64.7748 19.1878 63.7892 21.6573 61.8191 23.7049ZM51.513 19.5985C52.3876 20.5073 53.4466 20.9617 54.6901 20.9617C55.9336 20.9617 56.9926 20.5073 57.8672 19.5985C58.7418 18.6903 59.1791 17.5893 59.1791 16.2972C59.1791 15.0051 58.7413 13.9047 57.8672 12.9959C56.9926 12.0877 55.9336 11.6328 54.6901 11.6328C53.4466 11.6328 52.387 12.0877 51.513 12.9959C50.6384 13.9047 50.2011 15.0051 50.2011 16.2972C50.2011 17.5893 50.6384 18.6903 51.513 19.5985Z" fill="#6D83FF"/>
<path d="M69.6113 8.90645C71.5712 6.86986 73.9315 5.85156 76.6926 5.85156C79.4537 5.85156 81.8084 6.86986 83.7583 8.90645C85.7076 10.943 86.6825 13.4066 86.6825 16.2978C86.6825 16.7796 86.6511 17.2503 86.5878 17.7105H72.4251C72.72 18.6746 73.2576 19.457 74.0375 20.0594C74.8167 20.6617 75.702 20.9629 76.6932 20.9629C77.4304 20.9629 78.1161 20.7881 78.7479 20.4374H85.8926C85.1128 22.343 83.89 23.8756 82.2255 25.0367C80.5604 26.1977 78.7165 26.7779 76.6932 26.7779C73.9321 26.7779 71.5718 25.7596 69.6118 23.723C67.6519 21.6864 66.6719 19.2118 66.6719 16.299C66.6719 13.3863 67.6519 10.9448 69.6118 8.90762L69.6113 8.90645ZM72.7093 14.228H80.6445C80.265 13.4614 79.7223 12.8433 79.0164 12.372C78.31 11.9013 77.5352 11.666 76.6926 11.666C75.85 11.666 75.0432 11.9013 74.3374 12.372C73.631 12.8433 73.0889 13.462 72.7093 14.228Z" fill="#6D83FF"/>
<path d="M106.917 26.7762H101.321V15.1147C101.321 14.1733 100.994 13.3571 100.341 12.6674C99.6874 11.9777 98.8974 11.6328 97.9701 11.6328C97.0429 11.6328 96.2787 11.9777 95.6149 12.6674C94.9511 13.3571 94.6192 14.1733 94.6192 15.1147V26.7762H88.9922V15.1147C88.9922 12.5748 89.8774 10.3902 91.6479 8.561C93.4184 6.73296 95.5252 5.81836 97.9707 5.81836C100.416 5.81836 102.544 6.72713 104.294 8.54469C106.043 10.3628 106.917 12.552 106.917 15.1147V26.7762H106.917Z" fill="#6D83FF"/>
<path d="M112.053 8.88956C114.024 6.8419 116.4 5.81836 119.182 5.81836C121.965 5.81836 124.34 6.84248 126.311 8.88956C128.282 10.9378 129.267 13.4066 129.267 16.2973V26.7762H123.671V25.6594C122.28 26.4039 120.783 26.7762 119.182 26.7762C116.4 26.7762 114.024 25.7526 112.053 23.705C110.083 21.6573 109.098 19.1879 109.098 16.2973C109.098 13.4066 110.083 10.9378 112.053 8.88956ZM122.359 12.9954C121.484 12.0872 120.425 11.6322 119.182 11.6322C117.938 11.6322 116.879 12.0872 116.005 12.9954C115.13 13.9041 114.693 15.0046 114.693 16.2967C114.693 17.5888 115.13 18.6566 116.005 19.5654C116.879 20.4741 117.938 20.9285 119.182 20.9285C120.425 20.9285 121.484 20.4741 122.359 19.5654C123.233 18.6566 123.671 17.5672 123.671 16.2967C123.671 15.0261 123.233 13.9041 122.359 12.9954Z" fill="#6D83FF"/>
<path d="M132.332 16.2973C132.332 13.4066 133.312 10.9378 135.272 8.88956C137.232 6.8419 139.603 5.81836 142.385 5.81836V11.6328C141.141 11.6328 140.088 12.0878 139.224 12.9959C138.359 13.9047 137.928 15.0052 137.928 16.2973V26.7762H132.332V16.2973Z" fill="#6D83FF"/>
<path d="M0.0638793 26.5134L9.70507 0.190906C9.746 0.0784738 9.85084 0.00390625 9.96745 0.00390625H13.9311C14.0477 0.00390625 14.1526 0.0784738 14.1935 0.190906L23.8201 26.6066C23.8891 26.7959 23.7528 26.9975 23.5572 26.9969L19.0878 26.9835C18.9723 26.9835 18.8692 26.9101 18.8277 26.7994L12.1147 9.00488C12.021 8.75613 11.6785 8.7602 11.5899 9.0107L5.31308 26.8076C5.27271 26.9218 5.16732 26.9975 5.04958 26.9975H0.281964C0.0717273 26.9975 -0.0673091 26.7656 0.0336047 26.5751C0.0375291 26.5682 0.0414548 26.5612 0.0453792 26.5536C0.0526674 26.5402 0.0593936 26.5262 0.0649999 26.5117L0.0638793 26.5134Z" fill="#6C83FF"/>
<path d="M7.69457 20.5918H16.3092C16.4864 20.5918 16.5946 20.7642 16.4993 20.8971L12.192 26.906C12.1034 27.0295 11.8999 27.0295 11.8113 26.906L7.50395 20.8971C7.40921 20.7648 7.51685 20.5918 7.69401 20.5918H7.69457Z" fill="url(#paint0_linear_358_5300)"/>
<path d="M157.141 0H162.737V20.9619H171.749V26.7775H157.141V0Z" fill="#6D83FF"/>
<path d="M176.129 8.88819C178.099 6.84053 180.476 5.81641 183.259 5.81641C186.041 5.81641 188.418 6.84053 190.389 8.88819C192.36 10.9364 193.345 13.4059 193.345 16.2971V26.7783H187.748V25.6609C186.357 26.406 184.86 26.7783 183.258 26.7783C180.476 26.7783 178.099 25.7547 176.128 23.7065C174.157 21.6588 173.172 19.1888 173.172 16.2976C173.172 13.4064 174.157 10.937 176.128 8.88877L176.129 8.88819ZM186.436 12.9952C185.561 12.0864 184.502 11.6314 183.259 11.6314C182.015 11.6314 180.956 12.0864 180.081 12.9952C179.207 13.9039 178.769 15.005 178.769 16.2971C178.769 17.5891 179.206 18.6575 180.081 19.5663C180.956 20.4757 182.015 20.9301 183.259 20.9301C184.503 20.9301 185.561 20.4757 186.436 19.5663C187.311 18.6575 187.749 17.5676 187.749 16.2971C187.749 15.0265 187.311 13.9039 186.436 12.9952Z" fill="#6D83FF"/>
<path d="M212.931 23.7051C210.96 25.7533 208.584 26.7769 205.801 26.7769C203.019 26.7769 200.642 25.7533 198.671 23.7051C196.7 21.6574 195.715 19.1874 195.715 16.2962V0H201.312V6.89971C202.745 6.17677 204.241 5.81559 205.802 5.81559C208.584 5.81559 210.961 6.83971 212.932 8.88737C214.902 10.9356 215.888 13.405 215.888 16.2962C215.888 19.1874 214.902 21.6574 212.932 23.7051H212.931ZM202.639 19.5981C203.524 20.5075 204.578 20.9619 205.801 20.9619C207.023 20.9619 208.077 20.5075 208.963 19.5981C209.848 18.6893 210.291 17.5889 210.291 16.2962C210.291 15.0036 209.848 13.9031 208.963 12.9943C208.077 12.0856 207.023 11.6306 205.801 11.6306C204.578 11.6306 203.524 12.0856 202.639 12.9943C201.753 13.9037 201.311 15.0041 201.311 16.2962C201.311 17.5883 201.753 18.6893 202.639 19.5981Z" fill="#6D83FF"/>
<path d="M224.52 26.7777C222.644 26.7777 221.105 26.088 219.904 24.7079C218.703 23.3278 218.102 21.6524 218.102 19.6811H223.793C223.73 19.769 223.698 19.9001 223.698 20.0755C223.698 20.2945 223.777 20.492 223.936 20.6668C224.094 20.8421 224.288 20.9295 224.52 20.9295C224.752 20.9295 224.952 20.8473 225.121 20.6831C225.29 20.5188 225.374 20.3166 225.374 20.0755C225.374 19.6595 225.173 19.3747 224.773 19.2214L222.244 18.1699C221.084 17.6882 220.146 16.9105 219.429 15.8374C218.712 14.7644 218.354 13.5596 218.354 12.2233C218.354 10.4273 218.965 8.91033 220.188 7.67299C221.41 6.43566 222.885 5.81641 224.614 5.81641C226.237 5.81641 227.639 6.41935 228.82 7.62348C230 8.82819 230.622 10.2741 230.686 11.9606H225.025C224.919 11.7421 224.751 11.632 224.52 11.632C224.372 11.632 224.246 11.6926 224.14 11.8126C224.034 11.9332 223.982 12.0701 223.982 12.2233C223.982 12.4645 224.077 12.6287 224.267 12.7161L227.018 13.8987C228.219 14.4242 229.184 15.2572 229.911 16.3955C230.638 17.5344 231.002 18.7723 231.002 20.1081C231.002 21.9699 230.37 23.5475 229.105 24.8396C227.84 26.1322 226.311 26.7783 224.52 26.7783V26.7777Z" fill="#6D83FF"/>
<defs>
<linearGradient id="paint0_linear_358_5300" x1="7.87005" y1="23.7952" x2="16.9355" y2="23.7952" gradientUnits="userSpaceOnUse">
<stop stop-color="#FF7135"/>
<stop offset="1" stop-color="#FF8F2F"/>
</linearGradient>
</defs>
</svg>
