<svg width="184" height="47" viewBox="0 0 184 47" fill="none" xmlns="http://www.w3.org/2000/svg">
<path fill-rule="evenodd" clip-rule="evenodd" d="M84.4219 16.4611C84.4219 19.4589 87.6736 22.1164 91.0375 20.8437C92.1006 20.4422 93.0064 19.5629 93.5124 18.5459C94.1518 17.2569 94.1842 15.7316 93.5986 14.4243C93.3251 13.8108 92.9247 13.3289 92.42 12.8795C89.4696 10.2557 84.4219 12.2304 84.4219 16.4611Z" fill="#413B89"/>
<path fill-rule="evenodd" clip-rule="evenodd" d="M86.75 10.3574C86.75 11.0952 87.1361 10.3574 89.4886 10.3574C90.2551 10.3574 91.0312 10.5215 91.5424 10.764C92.1877 9.5596 90.8926 9.02666 89.2146 7.91602C87.8054 9.12856 86.75 9.05623 86.75 10.3574Z" fill="#413B89"/>
<path fill-rule="evenodd" clip-rule="evenodd" d="M93.0469 11.3062V11.7128C93.7874 11.9084 94.7955 13.5958 95.0566 14.3345C95.1959 14.7289 95.3404 15.2261 95.3747 15.6469C96.85 15.5237 96.6083 13.6926 96.6083 12.1203C95.6378 11.8951 94.8538 11.0352 94.0057 11.0352C93.5159 11.0352 93.5211 11.1941 93.0469 11.3062Z" fill="#413B89"/>
<path fill-rule="evenodd" clip-rule="evenodd" d="M81.8203 12.1216C81.832 12.5883 81.9168 12.6504 81.9512 13.0785C82.0302 14.1035 81.6253 15.3171 83.0539 15.6483C83.2347 15.2753 83.2573 14.829 83.4251 14.3878C84.3367 11.9963 85.2982 12.2908 85.3818 11.3075C84.8777 11.174 84.7358 10.6085 83.166 11.552C82.8032 11.7711 82.2615 12.0198 81.8203 12.1216Z" fill="#413B89"/>
<path fill-rule="evenodd" clip-rule="evenodd" d="M93.0469 21.4806C94.309 22.1399 94.7884 21.551 95.5704 21.1312C96.6861 20.531 96.6083 21.2616 96.6083 19.1747C96.6083 18.1283 96.3757 17.3559 95.3747 17.2754C95.2886 18.329 94.5506 19.78 93.7686 20.5677C93.4265 20.9121 93.1765 21.0028 93.0469 21.4806Z" fill="#413B89"/>
<path fill-rule="evenodd" clip-rule="evenodd" d="M86.75 22.5658C86.75 23.2465 87.2858 23.6164 87.7322 23.8986L89.2146 24.8717C91.5159 23.3453 91.6798 23.7885 91.6798 22.1582C90.7559 22.1796 90.7138 22.5658 89.0779 22.5658C88.1008 22.5658 87.6525 22.1796 86.75 22.1582V22.5658Z" fill="#413B89"/>
<path fill-rule="evenodd" clip-rule="evenodd" d="M81.8203 20.6665L84.2862 21.7517C85.1679 21.7517 85.0662 21.8118 85.3818 21.3452C85.2314 20.7868 84.8745 21.0058 83.9817 19.6098C83.6208 19.0463 83.2094 18.1283 83.1906 17.2754C82.6729 17.2856 82.6548 17.2601 82.3645 17.5444C82.1877 17.7166 82.0108 18.0498 81.9674 18.3708C81.9201 18.7132 81.9706 19.2237 81.9622 19.5864C81.9473 20.2182 81.8637 20.1581 81.8203 20.6665Z" fill="#413B89"/>
<path fill-rule="evenodd" clip-rule="evenodd" d="M93.0454 23.1065C92.8543 23.9309 92.5504 24.2671 91.9634 24.7471C91.6738 24.9876 91.6576 24.8439 91.5391 25.277C92.2077 25.5948 93.8229 25.6845 94.8258 25.6845C95.0655 25.1913 95.1757 24.8021 95.4711 24.2855C95.8825 23.563 95.9214 23.6496 95.9214 22.5645C95.4944 22.7886 95.1549 22.9506 94.6658 23.0882C93.7626 23.3388 93.9544 23.1065 93.0454 23.1065Z" fill="#413B89"/>
<path fill-rule="evenodd" clip-rule="evenodd" d="M91.5391 7.64467C91.9239 8.21323 92.1267 8.08991 92.5271 8.5648C92.864 8.96626 92.9437 9.36566 93.1834 9.814C94.2861 9.29025 95.1789 10.0494 95.9214 10.2216C95.9214 9.12115 95.8825 9.26176 95.4316 8.53625C95.1076 8.00941 95.0053 7.56822 94.6891 7.10156C93.3538 7.40928 92.6081 6.93446 91.5391 7.64467Z" fill="#413B89"/>
<path fill-rule="evenodd" clip-rule="evenodd" d="M82.7773 10.0861C83.5632 10.0209 83.5211 9.38399 85.3799 9.814C85.79 8.06651 86.8014 8.33044 87.0223 7.5081C86.066 7.05161 85.1123 7.35424 84.0096 7.10156C83.5969 7.71192 82.7773 9.31371 82.7773 10.0861Z" fill="#413B89"/>
<path fill-rule="evenodd" clip-rule="evenodd" d="M83.8729 25.6857C84.6621 25.6857 86.379 25.5624 87.0223 25.4137V25.0071C85.7544 24.6729 85.5179 23.1077 85.2432 23.1077C84.5538 23.1077 84.2597 23.4786 82.7773 22.7012C82.7773 24.144 83.5866 24.4701 83.8729 25.6857Z" fill="#413B89"/>
<path fill-rule="evenodd" clip-rule="evenodd" d="M78.5312 16.461C81.0107 20.1262 80.3512 18.7903 80.6978 17.6562C80.8889 17.0295 81.2504 16.9103 81.4079 16.3254C80.9777 15.6896 80.5857 15.658 80.5857 14.0195C79.8348 14.0827 79.3599 15.2352 78.5312 16.461Z" fill="#413B89"/>
<path fill-rule="evenodd" clip-rule="evenodd" d="M97.0156 16.461C97.2689 16.8319 97.5242 16.9439 97.7115 17.4004C97.946 17.9721 97.7134 18.3633 97.9745 18.9034C98.706 18.7098 98.8537 17.8987 99.4251 17.0846C99.7121 16.6749 99.7724 16.7687 99.8909 16.3254C99.5968 15.8873 99.2593 15.5745 98.9807 15.0578C98.6937 14.5311 98.5453 14.0776 97.8378 14.0195C97.8378 15.6499 97.6713 15.494 97.0156 16.461Z" fill="#413B89"/>
<path fill-rule="evenodd" clip-rule="evenodd" d="M78.3945 10.2211C78.596 11.077 78.9426 12.1745 78.9426 13.2046C79.6087 13.0274 79.3903 12.7695 80.449 12.527C80.3868 11.7964 79.8432 11.0271 81.4079 10.8987V9.27148L78.3945 10.2211Z" fill="#413B89"/>
<path fill-rule="evenodd" clip-rule="evenodd" d="M78.3945 22.7014C79.5568 22.7269 80.4593 23.432 81.4079 23.651C81.2511 21.7853 81.851 22.0747 80.449 21.7517C80.2475 20.8937 80.2475 21.2534 80.449 20.3954L78.9426 19.7168C78.909 21.2167 78.4418 22.1379 78.3945 22.7014Z" fill="#413B89"/>
<path fill-rule="evenodd" clip-rule="evenodd" d="M87.0234 5.74558C87.1077 6.05636 87.0157 5.8811 87.2366 6.07674L88.3924 6.69522C88.8537 6.38956 89.3733 5.7792 90.1735 6.96629C90.6309 6.66063 90.8576 6.20717 91.5425 6.15214C91.4323 5.74252 90.6782 5.32067 89.9234 4.63694L89.3513 4.11523C88.5324 4.33431 88.0484 5.50816 87.0234 5.74558Z" fill="#413B89"/>
<path fill-rule="evenodd" clip-rule="evenodd" d="M97.2891 10.9C98.5803 11.1975 98.1371 11.4115 98.1112 12.5283C99.0533 12.7443 99.477 13.6991 99.6202 12.6791L100.031 10.2224C99.8126 10.1174 97.6454 9.42659 97.4258 9.4082C97.4258 10.1592 97.2891 10.2122 97.2891 10.9Z" fill="#413B89"/>
<path fill-rule="evenodd" clip-rule="evenodd" d="M88.2557 26.0925L87.0234 27.0422C87.7037 27.2215 88.7572 28.4117 89.2146 28.805L91.5425 26.7701C91.3299 26.658 91.1453 26.599 90.9159 26.442C90.6212 26.2433 90.5972 26.1475 90.3102 25.957C89.9707 26.1832 89.7413 26.5725 89.3332 26.599C88.7773 26.6377 88.8414 26.2464 88.2557 26.0925Z" fill="#413B89"/>
<path fill-rule="evenodd" clip-rule="evenodd" d="M98.1145 20.2587C98.3678 21.8758 98.454 21.4061 97.1562 22.0216C97.3584 22.4363 97.4297 22.8907 97.4297 23.5143C97.9933 23.2453 99.2995 22.7603 100.034 22.7001L99.4841 19.5801C98.96 19.9276 98.8408 20.0916 98.1145 20.2587Z" fill="#413B89"/>
<path d="M3.10547 23.5973L8.37281 9.86379H12.3379L17.5469 23.5973H13.5041L9.63619 11.9277H11.0356L7.07055 23.5973H3.10547ZM6.52633 21.2827V18.2736H14.2621V21.2827H6.52633ZM23.1121 23.8288C21.933 23.8288 20.9028 23.6616 20.0217 23.3273C19.1535 22.9801 18.3501 22.4336 17.6115 21.6877L20.0411 19.2766C20.5465 19.7524 21.0777 20.1189 21.6349 20.3761C22.1921 20.6204 22.7882 20.7426 23.4231 20.7426C23.9544 20.7426 24.3561 20.6654 24.6282 20.5111C24.9003 20.344 25.0363 20.1189 25.0363 19.836C25.0363 19.5531 24.9197 19.3217 24.6865 19.1416C24.4532 18.9487 24.1423 18.7816 23.7535 18.6401C23.3777 18.4858 22.9566 18.3315 22.4901 18.1772C22.0366 18.0229 21.5831 17.8364 21.1296 17.6178C20.6761 17.3992 20.2549 17.1356 19.8662 16.827C19.4904 16.5055 19.1859 16.1133 18.9527 15.6504C18.7194 15.1746 18.6028 14.5959 18.6028 13.9144C18.6028 13.0271 18.8166 12.262 19.2442 11.6191C19.6718 10.9761 20.2744 10.4875 21.0518 10.1531C21.8293 9.80592 22.7428 9.63233 23.7924 9.63233C24.829 9.63233 25.7879 9.7995 26.669 10.1338C27.5631 10.4553 28.3017 10.9182 28.8848 11.5226L26.4358 13.9337C26.0082 13.5222 25.5806 13.22 25.153 13.0271C24.7253 12.8214 24.2589 12.7185 23.7535 12.7185C23.3518 12.7185 23.0279 12.7828 22.7817 12.9114C22.5485 13.04 22.4318 13.2329 22.4318 13.4901C22.4318 13.7601 22.5485 13.9851 22.7817 14.1652C23.0149 14.3323 23.3194 14.4866 23.6952 14.6281C24.0839 14.7695 24.5051 14.9174 24.9586 15.0717C25.4251 15.226 25.8851 15.4125 26.3386 15.6311C26.7921 15.8368 27.2068 16.1069 27.5825 16.4412C27.9713 16.7627 28.2823 17.1678 28.5155 17.6564C28.7487 18.1451 28.8654 18.7366 28.8654 19.431C28.8654 20.8326 28.36 21.9192 27.3493 22.6907C26.3515 23.4494 24.9392 23.8288 23.1121 23.8288ZM33.5479 23.5973V9.86379H37.4352V23.5973H33.5479ZM29.4079 13.1429V9.86379H41.5947V13.1429H29.4079ZM46.399 18.1193V15.4575H48.7508C49.2821 15.4575 49.6838 15.3289 49.9559 15.0717C50.241 14.8145 50.3835 14.4738 50.3835 14.0494C50.3835 13.6251 50.241 13.2843 49.9559 13.0271C49.6838 12.7699 49.2821 12.6414 48.7508 12.6414H46.399V9.86379H49.3728C50.3317 9.86379 51.1739 10.0374 51.8996 10.3846C52.6252 10.7318 53.1953 11.214 53.61 11.8312C54.0246 12.4485 54.232 13.1686 54.232 13.9916C54.232 14.8145 54.0182 15.5347 53.5905 16.1519C53.1759 16.7691 52.5928 17.2513 51.8412 17.5985C51.0897 17.9457 50.2021 18.1193 49.1784 18.1193H46.399ZM43.2503 23.5973V9.86379H47.1376V23.5973H43.2503ZM50.7139 23.5973L46.9432 17.7336L50.4418 16.9813L55.126 23.5973H50.7139ZM63.1555 23.8673C62.067 23.8673 61.0628 23.6873 60.1428 23.3273C59.2358 22.9672 58.4389 22.4657 57.7521 21.8228C57.0783 21.1798 56.5535 20.4211 56.1777 19.5467C55.802 18.6723 55.6141 17.7271 55.6141 16.7113C55.6141 15.6825 55.7955 14.7374 56.1583 13.8758C56.5341 13.0143 57.0589 12.262 57.7327 11.6191C58.4065 10.9761 59.1969 10.481 60.104 10.1338C61.0239 9.77378 62.0282 9.59375 63.1166 9.59375C64.2051 9.59375 65.2027 9.77378 66.1097 10.1338C67.0297 10.481 67.8266 10.9761 68.5004 11.6191C69.1742 12.262 69.6926 13.0207 70.0554 13.8951C70.4311 14.7567 70.619 15.7018 70.619 16.7305C70.619 17.7464 70.4311 18.6916 70.0554 19.566C69.6926 20.4275 69.1742 21.1862 68.5004 21.842C67.8266 22.485 67.0362 22.9865 66.1292 23.3466C65.2221 23.6938 64.231 23.8673 63.1555 23.8673ZM63.1166 20.4725C63.8423 20.4725 64.4707 20.3182 65.0018 20.0096C65.5331 19.701 65.9413 19.2638 66.2264 18.698C66.5114 18.1322 66.654 17.4699 66.654 16.7113C66.654 16.1455 66.5697 15.6375 66.4013 15.1875C66.2458 14.7245 66.0126 14.3323 65.7016 14.0108C65.3906 13.6765 65.0148 13.4258 64.5744 13.2586C64.1468 13.0786 63.6609 12.9886 63.1166 12.9886C62.391 12.9886 61.7625 13.1429 61.2313 13.4515C60.7 13.7472 60.2918 14.178 60.0068 14.7438C59.7217 15.2968 59.5792 15.9526 59.5792 16.7113C59.5792 17.2899 59.6569 17.8107 59.8124 18.2736C59.9809 18.7366 60.2206 19.1352 60.5316 19.4695C60.8425 19.791 61.2118 20.0418 61.6394 20.2218C62.08 20.389 62.5724 20.4725 63.1166 20.4725Z" fill="#413B89"/>
<path d="M108.5 23.5968V9.86328H111.318L116.469 17.3473H115.245L120.376 9.86328H123.194V23.5968H119.346V16.19L119.909 16.3443L117.091 20.3563H114.603L111.804 16.3443L112.348 16.19V23.5968H108.5ZM131.494 23.8283C130.276 23.8283 129.214 23.5839 128.307 23.0953C127.4 22.5938 126.693 21.9058 126.188 21.0314C125.683 20.157 125.43 19.154 125.43 18.0224V9.86328H129.317V18.3696C129.317 18.8068 129.414 19.1797 129.609 19.4883C129.803 19.7969 130.062 20.0348 130.386 20.202C130.723 20.3563 131.092 20.4335 131.494 20.4335C131.909 20.4335 132.272 20.3563 132.583 20.202C132.907 20.0348 133.159 19.8034 133.341 19.5076C133.522 19.199 133.613 18.8261 133.613 18.3889V9.86328H137.52V18.0417C137.52 19.1733 137.267 20.1763 136.761 21.0507C136.269 21.9123 135.569 22.5938 134.662 23.0953C133.768 23.5839 132.712 23.8283 131.494 23.8283ZM142.357 23.5968V20.3177H145.583C146.309 20.3177 146.937 20.1891 147.468 19.932C148 19.6619 148.408 19.2569 148.693 18.7168C148.978 18.1767 149.121 17.508 149.121 16.7108C149.121 15.9135 148.972 15.2512 148.674 14.724C148.388 14.1968 147.98 13.8046 147.449 13.5474C146.931 13.2774 146.309 13.1424 145.583 13.1424H142.162V9.86328H145.583C146.672 9.86328 147.669 10.024 148.576 10.3455C149.496 10.667 150.293 11.1299 150.967 11.7343C151.641 12.3387 152.159 13.0652 152.522 13.9139C152.898 14.7497 153.086 15.6885 153.086 16.73C153.086 17.7716 152.898 18.7168 152.522 19.5655C152.159 20.4013 151.641 21.1214 150.967 21.7258C150.293 22.3302 149.503 22.7931 148.596 23.1146C147.689 23.4361 146.697 23.5968 145.622 23.5968H142.357ZM139.752 23.5968V9.86328H143.639V23.5968H139.752ZM158.014 18.1188V15.457H160.366C160.897 15.457 161.299 15.3284 161.571 15.0712C161.856 14.814 161.999 14.4733 161.999 14.0489C161.999 13.6246 161.856 13.2838 161.571 13.0266C161.299 12.7694 160.897 12.6408 160.366 12.6408H158.014V9.86328H160.988C161.947 9.86328 162.789 10.0369 163.515 10.3841C164.24 10.7313 164.81 11.2135 165.225 11.8307C165.64 12.448 165.847 13.1681 165.847 13.9911C165.847 14.814 165.633 15.5341 165.206 16.1514C164.791 16.7686 164.208 17.2508 163.456 17.598C162.705 17.9452 161.817 18.1188 160.794 18.1188H158.014ZM154.865 23.5968V9.86328H158.753V23.5968H154.865ZM162.329 23.5968L158.558 17.733L162.057 16.9808L166.741 23.5968H162.329ZM166.443 23.5968L171.71 9.86328H175.676L180.885 23.5968H176.842L172.974 11.9272H174.373L170.408 23.5968H166.443ZM169.864 21.2822V18.2731H177.6V21.2822H169.864Z" fill="#413B89"/>
<path d="M36.707 42.4989V36.648H37.6756V42.4989H36.707ZM37.3724 42.4989V41.6213H40.674V42.4989H37.3724ZM37.3724 39.9329V39.0887H40.3877V39.9329H37.3724ZM37.3724 37.5257V36.648H40.6319V37.5257H37.3724ZM42.9384 42.4989V36.648H43.6122L46.0632 40.6517H45.6252L48.0762 36.648H48.75V42.4989H47.7814V38.3364L48.0004 38.3949L46.1811 41.3622H45.5073L43.688 38.3949L43.907 38.3364V42.4989H42.9384ZM51.9573 42.4989V41.6631H53.6502C53.9478 41.6631 54.178 41.5711 54.3408 41.3873C54.5037 41.2034 54.5851 40.9916 54.5851 40.752C54.5851 40.5904 54.5485 40.44 54.4756 40.3007C54.4026 40.1613 54.2959 40.0499 54.1555 39.9663C54.0151 39.8827 53.8467 39.8409 53.6502 39.8409H51.9573V39.0051H53.507C53.7597 39.0051 53.9618 38.941 54.1134 38.8129C54.265 38.6847 54.3408 38.4952 54.3408 38.2445C54.3408 37.9937 54.265 37.8043 54.1134 37.6761C53.9618 37.548 53.7597 37.4839 53.507 37.4839H51.9573V36.648H53.5323C53.9309 36.648 54.2622 36.7205 54.5261 36.8654C54.79 37.0102 54.9865 37.1969 55.1157 37.4254C55.2448 37.6538 55.3094 37.899 55.3094 38.1609C55.3094 38.4674 55.2224 38.7376 55.0483 38.9717C54.8799 39.2057 54.63 39.3952 54.2987 39.54L54.3745 39.2391C54.7451 39.3896 55.0343 39.6013 55.242 39.8744C55.4498 40.1474 55.5537 40.4678 55.5537 40.8356C55.5537 41.1365 55.4779 41.4123 55.3263 41.6631C55.1802 41.9138 54.9613 42.1172 54.6693 42.2732C54.3829 42.4237 54.0292 42.4989 53.6081 42.4989H51.9573ZM51.2919 42.4989V36.648H52.2605V42.4989H51.2919ZM58.46 40.0165V39.2224H59.9508C60.2484 39.2224 60.4786 39.1472 60.6415 38.9968C60.8099 38.8407 60.8942 38.6262 60.8942 38.3532C60.8942 38.108 60.8127 37.9018 60.6499 37.7346C60.487 37.5675 60.2568 37.4839 59.9593 37.4839H58.46V36.648H60.0014C60.372 36.648 60.6976 36.7233 60.9784 36.8737C61.2591 37.0186 61.4753 37.2192 61.6269 37.4755C61.7841 37.7263 61.8627 38.0132 61.8627 38.3364C61.8627 38.6764 61.7841 38.9717 61.6269 39.2224C61.4753 39.4732 61.2591 39.6682 60.9784 39.8075C60.6976 39.9468 60.372 40.0165 60.0014 40.0165H58.46ZM57.7947 42.4989V36.648H58.7633V42.4989H57.7947ZM61.0289 42.4989L58.9654 39.958L59.8666 39.632L62.2502 42.4989H61.0289ZM63.6045 42.4989L66.0301 36.648H66.7039L69.1127 42.4989H68.0683L66.1817 37.7597H66.5354L64.632 42.4989H63.6045ZM64.8004 41.3705V40.5347H67.9252V41.3705H64.8004ZM73.4788 42.5825C73.0519 42.5825 72.656 42.5073 72.2913 42.3568C71.9317 42.2008 71.6175 41.9863 71.3479 41.7132C71.0784 41.4346 70.8705 41.1142 70.7247 40.752C70.5783 40.3842 70.5057 39.9914 70.5057 39.5735C70.5057 39.1556 70.5783 38.7655 70.7247 38.4033C70.8705 38.0355 71.0784 37.7151 71.3479 37.4421C71.6175 37.169 71.9317 36.9545 72.2913 36.7985C72.656 36.6424 73.0519 36.5645 73.4788 36.5645C73.9557 36.5645 74.3684 36.6424 74.717 36.7985C75.0649 36.9545 75.3739 37.1663 75.6434 37.4337L74.9865 38.0857C74.8122 37.8962 74.599 37.7486 74.3464 37.6427C74.0989 37.5368 73.8099 37.4839 73.4788 37.4839C73.1866 37.4839 72.9197 37.534 72.6787 37.6343C72.437 37.7346 72.2265 37.8795 72.047 38.069C71.8727 38.2529 71.738 38.4729 71.6427 38.7293C71.5468 38.9856 71.4995 39.267 71.4995 39.5735C71.4995 39.88 71.5468 40.1613 71.6427 40.4177C71.738 40.674 71.8727 40.8969 72.047 41.0864C72.2265 41.2702 72.437 41.4123 72.6787 41.5126C72.9197 41.6129 73.1866 41.6631 73.4788 41.6631C73.8378 41.6631 74.141 41.6102 74.3885 41.5043C74.6412 41.3929 74.8543 41.2424 75.0286 41.0529L75.6855 41.7049C75.416 41.9779 75.0986 42.1924 74.7338 42.3485C74.3684 42.5045 73.9505 42.5825 73.4788 42.5825ZM77.8132 42.4989V36.648H78.7818V42.4989H77.8132ZM78.4786 42.4989V41.6213H81.7802V42.4989H78.4786ZM78.4786 39.9329V39.0887H81.4939V39.9329H78.4786ZM78.4786 37.5257V36.648H81.7381V37.5257H78.4786ZM88.3446 42.4989V36.8152H89.3132V42.4989H88.3446ZM86.4243 37.5257V36.648H91.2336V37.5257H86.4243ZM93.3405 42.4989V36.648H94.3091V42.4989H93.3405ZM97.0885 42.4989V36.648H98.0571V42.4989H97.0885ZM94.0059 39.9078V39.0302H97.2991V39.9078H94.0059ZM100.6 42.4989V36.648H101.569V42.4989H100.6ZM101.265 42.4989V41.6213H104.567V42.4989H101.265ZM101.265 39.9329V39.0887H104.281V39.9329H101.265ZM101.265 37.5257V36.648H104.525V37.5257H101.265ZM110.446 42.4989V41.6213H111.996C112.4 41.6213 112.754 41.5349 113.057 41.3622C113.366 41.1894 113.604 40.9499 113.773 40.6434C113.947 40.3313 114.034 39.9719 114.034 39.5651C114.034 39.1639 113.947 38.8101 113.773 38.5036C113.599 38.1971 113.358 37.9575 113.049 37.7848C112.745 37.612 112.395 37.5257 111.996 37.5257H110.446V36.648H112.021C112.448 36.648 112.844 36.7233 113.209 36.8737C113.574 37.0186 113.891 37.2248 114.16 37.4922C114.436 37.7541 114.649 38.0634 114.8 38.42C114.952 38.7711 115.028 39.1556 115.028 39.5735C115.028 39.9858 114.952 40.3703 114.8 40.7269C114.649 41.0836 114.438 41.3956 114.169 41.6631C113.899 41.925 113.582 42.1312 113.217 42.2816C112.852 42.4265 112.459 42.4989 112.038 42.4989H110.446ZM109.781 42.4989V36.648H110.749V42.4989H109.781ZM117.279 42.4989V36.648H118.247V42.4989H117.279ZM122.733 42.4989L120.35 36.648H121.402L123.264 41.3873H122.893L124.771 36.648H125.807L123.407 42.4989H122.733ZM127.916 42.4989V36.648H128.884V42.4989H127.916ZM131.425 42.4989V36.648H132.098L132.393 37.7513V42.4989H131.425ZM135.51 42.4989L131.98 37.9269L132.098 36.648L135.627 41.2201L135.51 42.4989ZM135.51 42.4989L135.215 41.4708V36.648H136.183V42.4989H135.51ZM138.725 42.4989V36.648H139.694V42.4989H138.725ZM139.39 42.4989V41.6213H142.692V42.4989H139.39ZM139.39 39.9329V39.0887H142.406V39.9329H139.39ZM139.39 37.5257V36.648H142.65V37.5257H139.39Z" fill="#413B89"/>
<mask id="mask0_116_17262" style="mask-type:luminance" maskUnits="userSpaceOnUse" x="36" y="36" width="107" height="7">
<path d="M142.794 36.4551H36.6055V42.6917H142.794V36.4551Z" fill="white"/>
<path d="M36.707 42.4989V36.648H37.6756V42.4989H36.707ZM37.3724 42.4989V41.6213H40.674V42.4989H37.3724ZM37.3724 39.9329V39.0887H40.3877V39.9329H37.3724ZM37.3724 37.5257V36.648H40.6319V37.5257H37.3724ZM42.9384 42.4989V36.648H43.6122L46.0632 40.6517H45.6252L48.0762 36.648H48.75V42.4989H47.7814V38.3364L48.0004 38.3949L46.1811 41.3622H45.5073L43.688 38.3949L43.907 38.3364V42.4989H42.9384ZM51.9573 42.4989V41.6631H53.6502C53.9478 41.6631 54.178 41.5711 54.3408 41.3873C54.5037 41.2034 54.5851 40.9916 54.5851 40.752C54.5851 40.5904 54.5485 40.44 54.4756 40.3007C54.4026 40.1613 54.2959 40.0499 54.1555 39.9663C54.0151 39.8827 53.8467 39.8409 53.6502 39.8409H51.9573V39.0051H53.507C53.7597 39.0051 53.9618 38.941 54.1134 38.8129C54.265 38.6847 54.3408 38.4952 54.3408 38.2445C54.3408 37.9937 54.265 37.8043 54.1134 37.6761C53.9618 37.548 53.7597 37.4839 53.507 37.4839H51.9573V36.648H53.5323C53.9309 36.648 54.2622 36.7205 54.5261 36.8654C54.79 37.0102 54.9865 37.1969 55.1157 37.4254C55.2448 37.6538 55.3094 37.899 55.3094 38.1609C55.3094 38.4674 55.2224 38.7376 55.0483 38.9717C54.8799 39.2057 54.63 39.3952 54.2987 39.54L54.3745 39.2391C54.7451 39.3896 55.0343 39.6013 55.242 39.8744C55.4498 40.1474 55.5537 40.4678 55.5537 40.8356C55.5537 41.1365 55.4779 41.4123 55.3263 41.6631C55.1802 41.9138 54.9613 42.1172 54.6693 42.2732C54.3829 42.4237 54.0292 42.4989 53.6081 42.4989H51.9573ZM51.2919 42.4989V36.648H52.2605V42.4989H51.2919ZM58.46 40.0165V39.2224H59.9508C60.2484 39.2224 60.4786 39.1472 60.6415 38.9968C60.8099 38.8407 60.8942 38.6262 60.8942 38.3532C60.8942 38.108 60.8127 37.9018 60.6499 37.7346C60.487 37.5675 60.2568 37.4839 59.9593 37.4839H58.46V36.648H60.0014C60.372 36.648 60.6976 36.7233 60.9784 36.8737C61.2591 37.0186 61.4753 37.2192 61.6269 37.4755C61.7841 37.7263 61.8627 38.0132 61.8627 38.3364C61.8627 38.6764 61.7841 38.9717 61.6269 39.2224C61.4753 39.4732 61.2591 39.6682 60.9784 39.8075C60.6976 39.9468 60.372 40.0165 60.0014 40.0165H58.46ZM57.7947 42.4989V36.648H58.7633V42.4989H57.7947ZM61.0289 42.4989L58.9654 39.958L59.8666 39.632L62.2502 42.4989H61.0289ZM63.6045 42.4989L66.0301 36.648H66.7039L69.1127 42.4989H68.0683L66.1817 37.7597H66.5354L64.632 42.4989H63.6045ZM64.8004 41.3705V40.5347H67.9252V41.3705H64.8004ZM73.4788 42.5825C73.0519 42.5825 72.656 42.5073 72.2913 42.3568C71.9317 42.2008 71.6175 41.9863 71.3479 41.7132C71.0784 41.4346 70.8705 41.1142 70.7247 40.752C70.5783 40.3842 70.5057 39.9914 70.5057 39.5735C70.5057 39.1556 70.5783 38.7655 70.7247 38.4033C70.8705 38.0355 71.0784 37.7151 71.3479 37.4421C71.6175 37.169 71.9317 36.9545 72.2913 36.7985C72.656 36.6424 73.0519 36.5645 73.4788 36.5645C73.9557 36.5645 74.3684 36.6424 74.717 36.7985C75.0649 36.9545 75.3739 37.1663 75.6434 37.4337L74.9865 38.0857C74.8122 37.8962 74.599 37.7486 74.3464 37.6427C74.0989 37.5368 73.8099 37.4839 73.4788 37.4839C73.1866 37.4839 72.9197 37.534 72.6787 37.6343C72.437 37.7346 72.2265 37.8795 72.047 38.069C71.8727 38.2529 71.738 38.4729 71.6427 38.7293C71.5468 38.9856 71.4995 39.267 71.4995 39.5735C71.4995 39.88 71.5468 40.1613 71.6427 40.4177C71.738 40.674 71.8727 40.8969 72.047 41.0864C72.2265 41.2702 72.437 41.4123 72.6787 41.5126C72.9197 41.6129 73.1866 41.6631 73.4788 41.6631C73.8378 41.6631 74.141 41.6102 74.3885 41.5043C74.6412 41.3929 74.8543 41.2424 75.0286 41.0529L75.6855 41.7049C75.416 41.9779 75.0986 42.1924 74.7338 42.3485C74.3684 42.5045 73.9505 42.5825 73.4788 42.5825ZM77.8132 42.4989V36.648H78.7818V42.4989H77.8132ZM78.4786 42.4989V41.6213H81.7802V42.4989H78.4786ZM78.4786 39.9329V39.0887H81.4939V39.9329H78.4786ZM78.4786 37.5257V36.648H81.7381V37.5257H78.4786ZM88.3446 42.4989V36.8152H89.3132V42.4989H88.3446ZM86.4243 37.5257V36.648H91.2336V37.5257H86.4243ZM93.3405 42.4989V36.648H94.3091V42.4989H93.3405ZM97.0885 42.4989V36.648H98.0571V42.4989H97.0885ZM94.0059 39.9078V39.0302H97.2991V39.9078H94.0059ZM100.6 42.4989V36.648H101.569V42.4989H100.6ZM101.265 42.4989V41.6213H104.567V42.4989H101.265ZM101.265 39.9329V39.0887H104.281V39.9329H101.265ZM101.265 37.5257V36.648H104.525V37.5257H101.265ZM110.446 42.4989V41.6213H111.996C112.4 41.6213 112.754 41.5349 113.057 41.3622C113.366 41.1894 113.604 40.9499 113.773 40.6434C113.947 40.3313 114.034 39.9719 114.034 39.5651C114.034 39.1639 113.947 38.8101 113.773 38.5036C113.599 38.1971 113.358 37.9575 113.049 37.7848C112.745 37.612 112.395 37.5257 111.996 37.5257H110.446V36.648H112.021C112.448 36.648 112.844 36.7233 113.209 36.8737C113.574 37.0186 113.891 37.2248 114.16 37.4922C114.436 37.7541 114.649 38.0634 114.8 38.42C114.952 38.7711 115.028 39.1556 115.028 39.5735C115.028 39.9858 114.952 40.3703 114.8 40.7269C114.649 41.0836 114.438 41.3956 114.169 41.6631C113.899 41.925 113.582 42.1312 113.217 42.2816C112.852 42.4265 112.459 42.4989 112.038 42.4989H110.446ZM109.781 42.4989V36.648H110.749V42.4989H109.781ZM117.279 42.4989V36.648H118.247V42.4989H117.279ZM122.733 42.4989L120.35 36.648H121.402L123.264 41.3873H122.893L124.771 36.648H125.807L123.407 42.4989H122.733ZM127.916 42.4989V36.648H128.884V42.4989H127.916ZM131.425 42.4989V36.648H132.098L132.393 37.7513V42.4989H131.425ZM135.51 42.4989L131.98 37.9269L132.098 36.648L135.627 41.2201L135.51 42.4989ZM135.51 42.4989L135.215 41.4708V36.648H136.183V42.4989H135.51ZM138.725 42.4989V36.648H139.694V42.4989H138.725ZM139.39 42.4989V41.6213H142.692V42.4989H139.39ZM139.39 39.9329V39.0887H142.406V39.9329H139.39ZM139.39 37.5257V36.648H142.65V37.5257H139.39Z" fill="black"/>
</mask>
<g mask="url(#mask0_116_17262)">
<path d="M36.7054 42.4991H36.6406V42.5634H36.7054V42.4991ZM36.7054 36.6483V36.584H36.6406V36.6483H36.7054ZM37.674 36.6483H37.7388V36.584H37.674V36.6483ZM37.674 42.4991V42.5634H37.7388V42.4991H37.674ZM37.3708 42.4991H37.306V42.5634H37.3708V42.4991ZM37.3708 41.6215V41.5572H37.306V41.6215H37.3708ZM40.6724 41.6215H40.7372V41.5572H40.6724V41.6215ZM40.6724 42.4991V42.5634H40.7372V42.4991H40.6724ZM37.3708 39.9331H37.306V39.9974H37.3708V39.9331ZM37.3708 39.0889V39.0246H37.306V39.0889H37.3708ZM40.3861 39.0889H40.4509V39.0246H40.3861V39.0889ZM40.3861 39.9331V39.9974H40.4509V39.9331H40.3861ZM37.3708 37.5259H37.306V37.5902H37.3708V37.5259ZM37.3708 36.6483V36.584H37.306V36.6483H37.3708ZM40.6303 36.6483H40.6951V36.584H40.6303V36.6483ZM40.6303 37.5259V37.5902H40.6951V37.5259H40.6303ZM36.7054 42.4991H36.7702V36.6483H36.7054H36.6406V42.4991H36.7054ZM36.7054 36.6483V36.7126H37.674V36.6483V36.584H36.7054V36.6483ZM37.674 36.6483H37.6092V42.4991H37.674H37.7388V36.6483H37.674ZM37.674 42.4991V42.4349H36.7054V42.4991V42.5634H37.674V42.4991ZM37.3708 42.4991H37.4356V41.6215H37.3708H37.306V42.4991H37.3708ZM37.3708 41.6215V41.6858H40.6724V41.6215V41.5572H37.3708V41.6215ZM40.6724 41.6215H40.6076V42.4991H40.6724H40.7372V41.6215H40.6724ZM40.6724 42.4991V42.4349H37.3708V42.4991V42.5634H40.6724V42.4991ZM37.3708 39.9331H37.4356V39.0889H37.3708H37.306V39.9331H37.3708ZM37.3708 39.0889V39.1532H40.3861V39.0889V39.0246H37.3708V39.0889ZM40.3861 39.0889H40.3213V39.9331H40.3861H40.4509V39.0889H40.3861ZM40.3861 39.9331V39.8688H37.3708V39.9331V39.9974H40.3861V39.9331ZM37.3708 37.5259H37.4356V36.6483H37.3708H37.306V37.5259H37.3708ZM37.3708 36.6483V36.7126H40.6303V36.6483V36.584H37.3708V36.6483ZM40.6303 36.6483H40.5655V37.5259H40.6303H40.6951V36.6483H40.6303ZM40.6303 37.5259V37.4616H37.3708V37.5259V37.5902H40.6303V37.5259ZM42.9368 42.4991H42.872V42.5634H42.9368V42.4991ZM42.9368 36.6483V36.584H42.872V36.6483H42.9368ZM43.6106 36.6483L43.666 36.6149L43.6471 36.584H43.6106V36.6483ZM46.0616 40.6519V40.7162H46.1767L46.1169 40.6186L46.0616 40.6519ZM45.6236 40.6519L45.5682 40.6186L45.5084 40.7162H45.6236V40.6519ZM48.0745 36.6483V36.584H48.0381L48.0191 36.6149L48.0745 36.6483ZM48.7483 36.6483H48.8131V36.584H48.7483V36.6483ZM48.7483 42.4991V42.5634H48.8131V42.4991H48.7483ZM47.7798 42.4991H47.715V42.5634H47.7798V42.4991ZM47.7798 38.3367L47.7966 38.2745L47.715 38.2528V38.3367H47.7798ZM47.9987 38.3952L48.0541 38.4286L48.099 38.3554L48.0156 38.3331L47.9987 38.3952ZM46.1795 41.3624V41.4267H46.2159L46.2348 41.3958L46.1795 41.3624ZM45.5057 41.3624L45.4503 41.3958L45.4693 41.4267H45.5057V41.3624ZM43.6864 38.3952L43.6696 38.3331L43.5862 38.3554L43.6311 38.4286L43.6864 38.3952ZM43.9054 38.3367H43.9702V38.2528L43.8885 38.2745L43.9054 38.3367ZM43.9054 42.4991V42.5634H43.9702V42.4991H43.9054ZM42.9368 42.4991H43.0016V36.6483H42.9368H42.872V42.4991H42.9368ZM42.9368 36.6483V36.7126H43.6106V36.6483V36.584H42.9368V36.6483ZM43.6106 36.6483L43.5552 36.6816L46.0062 40.6853L46.0616 40.6519L46.1169 40.6186L43.666 36.6149L43.6106 36.6483ZM46.0616 40.6519V40.5876H45.6236V40.6519V40.7162H46.0616V40.6519ZM45.6236 40.6519L45.679 40.6853L48.1299 36.6816L48.0745 36.6483L48.0191 36.6149L45.5682 40.6186L45.6236 40.6519ZM48.0745 36.6483V36.7126H48.7483V36.6483V36.584H48.0745V36.6483ZM48.7483 36.6483H48.6836V42.4991H48.7483H48.8131V36.6483H48.7483ZM48.7483 42.4991V42.4349H47.7798V42.4991V42.5634H48.7483V42.4991ZM47.7798 42.4991H47.8445V38.3367H47.7798H47.715V42.4991H47.7798ZM47.7798 38.3367L47.7629 38.3988L47.9819 38.4573L47.9987 38.3952L48.0156 38.3331L47.7966 38.2745L47.7798 38.3367ZM47.9987 38.3952L47.9434 38.3617L46.1241 41.329L46.1795 41.3624L46.2348 41.3958L48.0541 38.4286L47.9987 38.3952ZM46.1795 41.3624V41.2981H45.5057V41.3624V41.4267H46.1795V41.3624ZM45.5057 41.3624L45.561 41.329L43.7417 38.3617L43.6864 38.3952L43.6311 38.4286L45.4503 41.3958L45.5057 41.3624ZM43.6864 38.3952L43.7032 38.4573L43.9222 38.3988L43.9054 38.3367L43.8885 38.2745L43.6696 38.3331L43.6864 38.3952ZM43.9054 38.3367H43.8406V42.4991H43.9054H43.9702V38.3367H43.9054ZM43.9054 42.4991V42.4349H42.9368V42.4991V42.5634H43.9054V42.4991ZM51.9556 42.4991H51.8909V42.5634H51.9556V42.4991ZM51.9556 41.6633V41.599H51.8909V41.6633H51.9556ZM51.9556 39.8412H51.8909V39.9055H51.9556V39.8412ZM51.9556 39.0053V38.941H51.8909V39.0053H51.9556ZM51.9556 37.4841H51.8909V37.5484H51.9556V37.4841ZM51.9556 36.6483V36.584H51.8909V36.6483H51.9556ZM55.0467 38.9719L54.9946 38.9337L54.9942 38.9341L54.994 38.9345L55.0467 38.9719ZM54.2971 39.5403L54.2342 39.5246L54.2021 39.6521L54.3232 39.5991L54.2971 39.5403ZM54.3729 39.2394L54.3974 39.1798L54.3282 39.1517L54.31 39.2237L54.3729 39.2394ZM55.3247 41.6633L55.2691 41.6303L55.2688 41.6307L55.2686 41.6312L55.3247 41.6633ZM54.6677 42.2735L54.698 42.3303L54.6984 42.33L54.6677 42.2735ZM51.2903 42.4991H51.2255V42.5634H51.2903V42.4991ZM51.2903 36.6483V36.584H51.2255V36.6483H51.2903ZM52.2589 36.6483H52.3236V36.584H52.2589V36.6483ZM52.2589 42.4991V42.5634H52.3236V42.4991H52.2589ZM51.9556 42.4991H52.0204V41.6633H51.9556H51.8909V42.4991H51.9556ZM51.9556 41.6633V41.7276H53.6486V41.6633V41.599H51.9556V41.6633ZM53.6486 41.6633V41.7276C53.9606 41.7276 54.2102 41.6305 54.3879 41.4299L54.3392 41.3875L54.2905 41.345C54.1425 41.5122 53.9317 41.599 53.6486 41.599V41.6633ZM54.3392 41.3875L54.3879 41.4299C54.5609 41.2346 54.6483 41.0078 54.6483 40.7522H54.5835H54.5187C54.5187 40.9759 54.4432 41.1726 54.2905 41.345L54.3392 41.3875ZM54.5835 40.7522H54.6483C54.6483 40.5806 54.6094 40.42 54.5314 40.2712L54.474 40.3009L54.4164 40.3305C54.4845 40.4604 54.5187 40.6006 54.5187 40.7522H54.5835ZM54.474 40.3009L54.5314 40.2712C54.4527 40.121 54.3375 40.0009 54.1872 39.9114L54.1539 39.9665L54.1206 40.0216C54.251 40.0994 54.3492 40.2022 54.4164 40.3305L54.474 40.3009ZM54.1539 39.9665L54.1872 39.9114C54.0349 39.8207 53.8545 39.7769 53.6486 39.7769V39.8412V39.9055C53.8357 39.9055 53.9921 39.9452 54.1206 40.0216L54.1539 39.9665ZM53.6486 39.8412V39.7769H51.9556V39.8412V39.9055H53.6486V39.8412ZM51.9556 39.8412H52.0204V39.0053H51.9556H51.8909V39.8412H51.9556ZM51.9556 39.0053V39.0696H53.5054V39.0053V38.941H51.9556V39.0053ZM53.5054 39.0053V39.0696C53.7692 39.0696 53.9876 39.0025 54.1538 38.862L54.1118 38.8131L54.0698 38.7642C53.9327 38.88 53.7469 38.941 53.5054 38.941V39.0053ZM54.1118 38.8131L54.1538 38.862C54.3236 38.7185 54.404 38.5088 54.404 38.2447H54.3392H54.2744C54.2744 38.4821 54.2032 38.6513 54.0698 38.7642L54.1118 38.8131ZM54.3392 38.2447H54.404C54.404 37.9806 54.3236 37.7709 54.1538 37.6274L54.1118 37.6763L54.0698 37.7253C54.2032 37.8381 54.2744 38.0073 54.2744 38.2447H54.3392ZM54.1118 37.6763L54.1538 37.6274C53.9876 37.4869 53.7692 37.4198 53.5054 37.4198V37.4841V37.5484C53.7469 37.5484 53.9327 37.6095 54.0698 37.7253L54.1118 37.6763ZM53.5054 37.4841V37.4198H51.9556V37.4841V37.5484H53.5054V37.4841ZM51.9556 37.4841H52.0204V36.6483H51.9556H51.8909V37.4841H51.9556ZM51.9556 36.6483V36.7126H53.5307V36.6483V36.584H51.9556V36.6483ZM53.5307 36.6483V36.7126C53.9217 36.7126 54.2414 36.7837 54.4932 36.9218L54.5245 36.8656L54.5559 36.8093C54.2797 36.6577 53.9369 36.584 53.5307 36.584V36.6483ZM54.5245 36.8656L54.4932 36.9218C54.748 37.0617 54.9351 37.2404 55.0575 37.457L55.1141 37.4256L55.1706 37.3941C55.0347 37.1538 54.8288 36.9591 54.5559 36.8093L54.5245 36.8656ZM55.1141 37.4256L55.0575 37.457C55.1813 37.6759 55.243 37.9103 55.243 38.1611H55.3078H55.3726C55.3726 37.8882 55.3052 37.6322 55.1706 37.3941L55.1141 37.4256ZM55.3078 38.1611H55.243C55.243 38.4546 55.16 38.7114 54.9946 38.9337L55.0467 38.9719L55.0988 39.0101C55.2816 38.7644 55.3726 38.4806 55.3726 38.1611H55.3078ZM55.0467 38.9719L54.994 38.9345C54.8338 39.1571 54.5942 39.3401 54.2709 39.4814L54.2971 39.5403L54.3232 39.5991C54.6625 39.4507 54.9227 39.2548 55.0994 39.0093L55.0467 38.9719ZM54.2971 39.5403L54.36 39.5559L54.4358 39.255L54.3729 39.2394L54.31 39.2237L54.2342 39.5246L54.2971 39.5403ZM54.3729 39.2394L54.3484 39.2989C54.7099 39.4457 54.9891 39.6509 55.1887 39.9134L55.2404 39.8746L55.2921 39.8358C55.0763 39.5522 54.777 39.3339 54.3974 39.1798L54.3729 39.2394ZM55.2404 39.8746L55.1887 39.9134C55.3873 40.1744 55.4873 40.4809 55.4873 40.8358H55.5521H55.6169C55.6169 40.4552 55.509 40.1209 55.2921 39.8358L55.2404 39.8746ZM55.5521 40.8358H55.4873C55.4873 41.1254 55.4145 41.3898 55.2691 41.6303L55.3247 41.6633L55.3802 41.6964C55.538 41.4353 55.6169 41.148 55.6169 40.8358H55.5521ZM55.3247 41.6633L55.2686 41.6312C55.1293 41.8702 54.9199 42.0657 54.6369 42.2169L54.6677 42.2735L54.6984 42.33C54.9995 42.1692 55.2279 41.9579 55.3807 41.6955L55.3247 41.6633ZM54.6677 42.2735L54.6374 42.2166C54.3627 42.3609 54.0201 42.4349 53.6065 42.4349V42.4991V42.5634C54.035 42.5634 54.3999 42.4869 54.698 42.3303L54.6677 42.2735ZM53.6065 42.4991V42.4349H51.9556V42.4991V42.5634H53.6065V42.4991ZM51.2903 42.4991H51.3551V36.6483H51.2903H51.2255V42.4991H51.2903ZM51.2903 36.6483V36.7126H52.2589V36.6483V36.584H51.2903V36.6483ZM52.2589 36.6483H52.1941V42.4991H52.2589H52.3236V36.6483H52.2589ZM52.2589 42.4991V42.4349H51.2903V42.4991V42.5634H52.2589V42.4991ZM58.4584 40.0167H58.3936V40.081H58.4584V40.0167ZM58.4584 39.2226V39.1584H58.3936V39.2226H58.4584ZM60.6399 38.997L60.684 39.044L60.684 39.044L60.6399 38.997ZM58.4584 37.4841H58.3936V37.5484H58.4584V37.4841ZM58.4584 36.6483V36.584H58.3936V36.6483H58.4584ZM60.9768 36.8739L60.946 36.9305L60.9464 36.9308L60.9468 36.931L60.9768 36.8739ZM61.6253 37.4757L61.5694 37.5083L61.5698 37.509L61.5703 37.5097L61.6253 37.4757ZM61.6253 39.2226L61.5703 39.1887L61.57 39.1891L61.5697 39.1896L61.6253 39.2226ZM57.793 42.4991H57.7283V42.5634H57.793V42.4991ZM57.793 36.6483V36.584H57.7283V36.6483H57.793ZM58.7616 36.6483H58.8264V36.584H58.7616V36.6483ZM58.7616 42.4991V42.5634H58.8264V42.4991H58.7616ZM61.0273 42.4991L60.9768 42.5395L60.9963 42.5634H61.0273V42.4991ZM58.9638 39.9582L58.9416 39.8977L58.8565 39.9285L58.9133 39.9985L58.9638 39.9582ZM59.865 39.6322L59.9149 39.5913L59.8858 39.5562L59.8428 39.5718L59.865 39.6322ZM62.2486 42.4991V42.5634H62.386L62.2985 42.4583L62.2486 42.4991ZM58.4584 40.0167H58.5232V39.2226H58.4584H58.3936V40.0167H58.4584ZM58.4584 39.2226V39.2869H59.9492V39.2226V39.1584H58.4584V39.2226ZM59.9492 39.2226V39.2869C60.2575 39.2869 60.5056 39.2089 60.684 39.044L60.6399 38.997L60.5957 38.9499C60.4484 39.086 60.236 39.1584 59.9492 39.1584V39.2226ZM60.6399 38.997L60.684 39.044C60.8682 38.8735 60.9573 38.6405 60.9573 38.3534H60.8925H60.8277C60.8277 38.6124 60.7484 38.8085 60.5956 38.95L60.6399 38.997ZM60.8925 38.3534H60.9573C60.9573 38.0925 60.8701 37.87 60.6949 37.6902L60.6483 37.7349L60.6017 37.7795C60.7521 37.934 60.8277 38.1238 60.8277 38.3534H60.8925ZM60.6483 37.7349L60.6949 37.6902C60.5167 37.5073 60.2678 37.4198 59.9576 37.4198V37.4841V37.5484C60.2426 37.5484 60.4542 37.6281 60.6017 37.7795L60.6483 37.7349ZM59.9576 37.4841V37.4198H58.4584V37.4841V37.5484H59.9576V37.4841ZM58.4584 37.4841H58.5232V36.6483H58.4584H58.3936V37.4841H58.4584ZM58.4584 36.6483V36.7126H59.9997V36.6483V36.584H58.4584V36.6483ZM59.9997 36.6483V36.7126C60.3613 36.7126 60.6761 36.7859 60.946 36.9305L60.9768 36.8739L61.0075 36.8174C60.7159 36.6611 60.3793 36.584 59.9997 36.584V36.6483ZM60.9768 36.8739L60.9468 36.931C61.2175 37.0706 61.4243 37.263 61.5694 37.5083L61.6253 37.4757L61.6811 37.4432C61.523 37.1759 61.2975 36.967 61.0066 36.8169L60.9768 36.8739ZM61.6253 37.4757L61.5703 37.5097C61.7205 37.7493 61.7963 38.0243 61.7963 38.3367H61.8611H61.9259C61.9259 38.0026 61.8445 37.7037 61.6803 37.4418L61.6253 37.4757ZM61.8611 38.3367H61.7963C61.7963 38.6664 61.7202 38.9496 61.5703 39.1887L61.6253 39.2226L61.6803 39.2566C61.8448 38.9942 61.9259 38.6867 61.9259 38.3367H61.8611ZM61.6253 39.2226L61.5697 39.1896C61.4249 39.4292 61.2182 39.616 60.9478 39.7503L60.9768 39.8077L61.0057 39.8652C61.2968 39.7209 61.5225 39.5176 61.6808 39.2557L61.6253 39.2226ZM60.9768 39.8077L60.9478 39.7503C60.6775 39.8843 60.362 39.9524 59.9997 39.9524V40.0167V40.081C60.3786 40.081 60.7145 40.0098 61.0057 39.8652L60.9768 39.8077ZM59.9997 40.0167V39.9524H58.4584V40.0167V40.081H59.9997V40.0167ZM57.793 42.4991H57.8578V36.6483H57.793H57.7283V42.4991H57.793ZM57.793 36.6483V36.7126H58.7616V36.6483V36.584H57.793V36.6483ZM58.7616 36.6483H58.6968V42.4991H58.7616H58.8264V36.6483H58.7616ZM58.7616 42.4991V42.4349H57.793V42.4991V42.5634H58.7616V42.4991ZM61.0273 42.4991L61.0777 42.4588L59.0142 39.9178L58.9638 39.9582L58.9133 39.9985L60.9768 42.5395L61.0273 42.4991ZM58.9638 39.9582L58.9859 40.0186L59.8871 39.6926L59.865 39.6322L59.8428 39.5718L58.9416 39.8977L58.9638 39.9582ZM59.865 39.6322L59.815 39.6731L62.1985 42.54L62.2486 42.4991L62.2985 42.4583L59.9149 39.5913L59.865 39.6322ZM62.2486 42.4991V42.4349H61.0273V42.4991V42.5634H62.2486V42.4991ZM63.6028 42.4991L63.543 42.4747L63.5062 42.5634H63.6028V42.4991ZM66.0285 36.6483V36.584H65.9851L65.9689 36.6238L66.0285 36.6483ZM66.7023 36.6483L66.7625 36.624L66.7457 36.584H66.7023V36.6483ZM69.1111 42.4991V42.5634H69.2076L69.1714 42.4748L69.1111 42.4991ZM68.0667 42.4991L68.0065 42.5227L68.0227 42.5634H68.0667V42.4991ZM66.1801 37.7599V37.6956H66.0848L66.1198 37.7835L66.1801 37.7599ZM66.5338 37.7599L66.5941 37.7837L66.6297 37.6956H66.5338V37.7599ZM64.6304 42.4991V42.5634H64.6743L64.6906 42.5229L64.6304 42.4991ZM64.7988 41.3708H64.7341V41.4351H64.7988V41.3708ZM64.7988 40.5349V40.4706H64.7341V40.5349H64.7988ZM67.9235 40.5349H67.9883V40.4706H67.9235V40.5349ZM67.9235 41.3708V41.4351H67.9883V41.3708H67.9235ZM63.6028 42.4991L63.6628 42.5236L66.0887 36.6727L66.0285 36.6483L65.9689 36.6238L63.543 42.4747L63.6028 42.4991ZM66.0285 36.6483V36.7126H66.7023V36.6483V36.584H66.0285V36.6483ZM66.7023 36.6483L66.6427 36.6726L69.0515 42.5234L69.1111 42.4991L69.1714 42.4748L66.7625 36.624L66.7023 36.6483ZM69.1111 42.4991V42.4349H68.0667V42.4991V42.5634H69.1111V42.4991ZM68.0667 42.4991L68.127 42.4755L66.2403 37.7363L66.1801 37.7599L66.1198 37.7835L68.0065 42.5227L68.0667 42.4991ZM66.1801 37.7599V37.8242H66.5338V37.7599V37.6956H66.1801V37.7599ZM66.5338 37.7599L66.4736 37.7361L64.5702 42.4754L64.6304 42.4991L64.6906 42.5229L66.5941 37.7837L66.5338 37.7599ZM64.6304 42.4991V42.4349H63.6028V42.4991V42.5634H64.6304V42.4991ZM64.7988 41.3708H64.8636V40.5349H64.7988H64.7341V41.3708H64.7988ZM64.7988 40.5349V40.5992H67.9235V40.5349V40.4706H64.7988V40.5349ZM67.9235 40.5349H67.8588V41.3708H67.9235H67.9883V40.5349H67.9235ZM67.9235 41.3708V41.3065H64.7988V41.3708V41.4351H67.9235V41.3708ZM72.2897 42.3571L72.2637 42.4159V42.4162L72.2644 42.4164L72.2897 42.3571ZM71.3463 41.7135L71.299 41.758L71.2997 41.7585L71.3463 41.7135ZM70.7231 40.7522L70.6628 40.7758V40.7761L70.7231 40.7522ZM70.7231 38.4035L70.7827 38.4274L70.7833 38.4271L70.7231 38.4035ZM72.2897 36.7987L72.2637 36.7397V36.7398L72.2897 36.7987ZM75.6418 37.4339L75.6872 37.4794L75.7332 37.4339L75.6872 37.3885L75.6418 37.4339ZM74.9849 38.0859L74.9369 38.1292L74.9823 38.179L75.0302 38.1314L74.9849 38.0859ZM74.3447 37.6429L74.3188 37.7019L74.3195 37.7021L74.3447 37.6429ZM72.0454 41.0866L71.9975 41.1299L71.9981 41.1306L71.9987 41.1313L72.0454 41.0866ZM74.3869 41.5045L74.4121 41.5635L74.4128 41.5633L74.3869 41.5045ZM75.027 41.0531L75.0723 41.0077L75.0244 40.96L74.979 41.0098L75.027 41.0531ZM75.6839 41.7051L75.7299 41.7501L75.7746 41.7046L75.7293 41.6596L75.6839 41.7051ZM73.4772 42.5827V42.5184C73.058 42.5184 72.6706 42.4446 72.3143 42.2977L72.2897 42.3571L72.2644 42.4164C72.6382 42.5704 73.0425 42.647 73.4772 42.647V42.5827ZM72.2897 42.3571L72.3156 42.2982C71.9638 42.1454 71.656 41.9355 71.3923 41.6684L71.3463 41.7135L71.2997 41.7585C71.575 42.0375 71.8964 42.2567 72.2637 42.4159L72.2897 42.3571ZM71.3463 41.7135L71.393 41.6689C71.1293 41.3963 70.9258 41.083 70.7827 40.7284L70.7231 40.7522L70.6628 40.7761C70.8118 41.1459 71.0237 41.4734 71.299 41.758L71.3463 41.7135ZM70.7231 40.7522L70.7833 40.7286C70.6401 40.3688 70.5689 39.984 70.5689 39.5737H70.5041H70.4393C70.4393 39.9992 70.5131 40.4001 70.6628 40.7758L70.7231 40.7522ZM70.5041 39.5737H70.5689C70.5689 39.1634 70.6401 38.7815 70.7827 38.4274L70.7231 38.4035L70.6628 38.3797C70.5131 38.7499 70.4393 39.1482 70.4393 39.5737H70.5041ZM70.7231 38.4035L70.7833 38.4271C70.9258 38.0671 71.1293 37.754 71.3923 37.4873L71.3463 37.4423L71.2997 37.3973C71.0237 37.6767 70.8118 38.0044 70.6628 38.3799L70.7231 38.4035ZM71.3463 37.4423L71.3923 37.4873C71.656 37.2202 71.9638 37.0104 72.3156 36.8576L72.2897 36.7987L72.2637 36.7398C71.8964 36.8991 71.575 37.1183 71.2997 37.3973L71.3463 37.4423ZM72.2897 36.7987L72.3149 36.8577C72.6713 36.7054 73.0587 36.629 73.4772 36.629V36.5647V36.5004C73.0418 36.5004 72.6376 36.5799 72.2637 36.7397L72.2897 36.7987ZM73.4772 36.5647V36.629C73.9476 36.629 74.3506 36.7059 74.6881 36.8573L74.7153 36.7987L74.7419 36.7401C74.3836 36.5795 73.9612 36.5004 73.4772 36.5004V36.5647ZM74.7153 36.7987L74.6881 36.8573C75.0296 37.0101 75.3315 37.2175 75.5958 37.4794L75.6418 37.4339L75.6872 37.3885C75.4125 37.1155 75.0969 36.8993 74.7419 36.7401L74.7153 36.7987ZM75.6418 37.4339L75.5958 37.3885L74.9389 38.0404L74.9849 38.0859L75.0302 38.1314L75.6872 37.4794L75.6418 37.4339ZM74.9849 38.0859L75.0322 38.0426C74.8514 37.8458 74.6305 37.6929 74.3694 37.5837L74.3447 37.6429L74.3195 37.7021C74.5637 37.8046 74.7691 37.947 74.9369 38.1292L74.9849 38.0859ZM74.3447 37.6429L74.37 37.5839C74.1135 37.4738 73.8154 37.4198 73.4772 37.4198V37.4841V37.5484C73.8012 37.5484 74.0817 37.6002 74.3188 37.7019L74.3447 37.6429ZM73.4772 37.4841V37.4198C73.1773 37.4198 72.9019 37.4713 72.6518 37.5753L72.6771 37.6346L72.7017 37.6938C72.9343 37.5972 73.1928 37.5484 73.4772 37.5484V37.4841ZM72.6771 37.6346L72.6518 37.5753C72.4017 37.679 72.184 37.8291 71.9981 38.0251L72.0454 38.0692L72.092 38.1132C72.2657 37.9304 72.4691 37.7907 72.7017 37.6938L72.6771 37.6346ZM72.0454 38.0692L71.9981 38.0251C71.8173 38.2158 71.678 38.4435 71.5802 38.7072L71.6411 38.7295L71.7014 38.7518C71.794 38.5029 71.9249 38.2903 72.092 38.1132L72.0454 38.0692ZM71.6411 38.7295L71.5802 38.7072C71.4817 38.9715 71.4331 39.2605 71.4331 39.5737H71.4979H71.5627C71.5627 39.2739 71.6094 39.0002 71.7014 38.7518L71.6411 38.7295ZM71.4979 39.5737H71.4331C71.4331 39.8869 71.4817 40.1759 71.5802 40.4402L71.6411 40.4179L71.7014 40.3956C71.6094 40.1472 71.5627 39.8735 71.5627 39.5737H71.4979ZM71.6411 40.4179L71.5802 40.4402C71.678 40.7038 71.8173 40.9339 71.9975 41.1299L72.0454 41.0866L72.0927 41.0432C71.9249 40.8603 71.7947 40.6447 71.7014 40.3956L71.6411 40.4179ZM72.0454 41.0866L71.9987 41.1313C72.1847 41.3216 72.4024 41.4686 72.6518 41.5721L72.6771 41.5129L72.7017 41.4536C72.4685 41.3565 72.265 41.2193 72.0914 41.0418L72.0454 41.0866ZM72.6771 41.5129L72.6518 41.5721C72.9019 41.6761 73.1773 41.7276 73.4772 41.7276V41.6633V41.599C73.1928 41.599 72.9343 41.5502 72.7017 41.4536L72.6771 41.5129ZM73.4772 41.6633V41.7276C73.8426 41.7276 74.1549 41.6738 74.4121 41.5635L74.3869 41.5045L74.3609 41.4455C74.1245 41.5469 73.8303 41.599 73.4772 41.599V41.6633ZM74.3869 41.5045L74.4128 41.5633C74.6732 41.4484 74.8942 41.293 75.0743 41.0965L75.027 41.0531L74.979 41.0098C74.8112 41.1923 74.6052 41.3376 74.3603 41.4457L74.3869 41.5045ZM75.027 41.0531L74.981 41.0986L75.6379 41.7506L75.6839 41.7051L75.7293 41.6596L75.0723 41.0077L75.027 41.0531ZM75.6839 41.7051L75.6373 41.6601C75.3742 41.927 75.0639 42.1368 74.7063 42.2897L74.7322 42.3487L74.7575 42.4077C75.13 42.2485 75.4546 42.0293 75.7299 41.7501L75.6839 41.7051ZM74.7322 42.3487L74.7063 42.2897C74.3506 42.4416 73.9411 42.5184 73.4772 42.5184V42.5827V42.647C73.956 42.647 74.383 42.5678 74.7575 42.4077L74.7322 42.3487ZM77.8116 42.4991H77.7468V42.5634H77.8116V42.4991ZM77.8116 36.6483V36.584H77.7468V36.6483H77.8116ZM78.7802 36.6483H78.845V36.584H78.7802V36.6483ZM78.7802 42.4991V42.5634H78.845V42.4991H78.7802ZM78.477 42.4991H78.4122V42.5634H78.477V42.4991ZM78.477 41.6215V41.5572H78.4122V41.6215H78.477ZM81.7786 41.6215H81.8434V41.5572H81.7786V41.6215ZM81.7786 42.4991V42.5634H81.8434V42.4991H81.7786ZM78.477 39.9331H78.4122V39.9974H78.477V39.9331ZM78.477 39.0889V39.0246H78.4122V39.0889H78.477ZM81.4922 39.0889H81.557V39.0246H81.4922V39.0889ZM81.4922 39.9331V39.9974H81.557V39.9331H81.4922ZM78.477 37.5259H78.4122V37.5902H78.477V37.5259ZM78.477 36.6483V36.584H78.4122V36.6483H78.477ZM81.7365 36.6483H81.8013V36.584H81.7365V36.6483ZM81.7365 37.5259V37.5902H81.8013V37.5259H81.7365ZM77.8116 42.4991H77.8764V36.6483H77.8116H77.7468V42.4991H77.8116ZM77.8116 36.6483V36.7126H78.7802V36.6483V36.584H77.8116V36.6483ZM78.7802 36.6483H78.7154V42.4991H78.7802H78.845V36.6483H78.7802ZM78.7802 42.4991V42.4349H77.8116V42.4991V42.5634H78.7802V42.4991ZM78.477 42.4991H78.5418V41.6215H78.477H78.4122V42.4991H78.477ZM78.477 41.6215V41.6858H81.7786V41.6215V41.5572H78.477V41.6215ZM81.7786 41.6215H81.7138V42.4991H81.7786H81.8434V41.6215H81.7786ZM81.7786 42.4991V42.4349H78.477V42.4991V42.5634H81.7786V42.4991ZM78.477 39.9331H78.5418V39.0889H78.477H78.4122V39.9331H78.477ZM78.477 39.0889V39.1532H81.4922V39.0889V39.0246H78.477V39.0889ZM81.4922 39.0889H81.4275V39.9331H81.4922H81.557V39.0889H81.4922ZM81.4922 39.9331V39.8688H78.477V39.9331V39.9974H81.4922V39.9331ZM78.477 37.5259H78.5418V36.6483H78.477H78.4122V37.5259H78.477ZM78.477 36.6483V36.7126H81.7365V36.6483V36.584H78.477V36.6483ZM81.7365 36.6483H81.6717V37.5259H81.7365H81.8013V36.6483H81.7365ZM81.7365 37.5259V37.4616H78.477V37.5259V37.5902H81.7365V37.5259ZM88.343 42.4991H88.2782V42.5634H88.343V42.4991ZM88.343 36.8154V36.7511H88.2782V36.8154H88.343ZM89.3116 36.8154H89.3764V36.7511H89.3116V36.8154ZM89.3116 42.4991V42.5634H89.3764V42.4991H89.3116ZM86.4227 37.5259H86.3579V37.5902H86.4227V37.5259ZM86.4227 36.6483V36.584H86.3579V36.6483H86.4227ZM91.2319 36.6483H91.2967V36.584H91.2319V36.6483ZM91.2319 37.5259V37.5902H91.2967V37.5259H91.2319ZM88.343 42.4991H88.4078V36.8154H88.343H88.2782V42.4991H88.343ZM88.343 36.8154V36.8797H89.3116V36.8154V36.7511H88.343V36.8154ZM89.3116 36.8154H89.2468V42.4991H89.3116H89.3764V36.8154H89.3116ZM89.3116 42.4991V42.4349H88.343V42.4991V42.5634H89.3116V42.4991ZM86.4227 37.5259H86.4874V36.6483H86.4227H86.3579V37.5259H86.4227ZM86.4227 36.6483V36.7126H91.2319V36.6483V36.584H86.4227V36.6483ZM91.2319 36.6483H91.1671V37.5259H91.2319H91.2967V36.6483H91.2319ZM91.2319 37.5259V37.4616H86.4227V37.5259V37.5902H91.2319V37.5259ZM93.3389 42.4991H93.2741V42.5634H93.3389V42.4991ZM93.3389 36.6483V36.584H93.2741V36.6483H93.3389ZM94.3075 36.6483H94.3722V36.584H94.3075V36.6483ZM94.3075 42.4991V42.5634H94.3722V42.4991H94.3075ZM97.0869 42.4991H97.0221V42.5634H97.0869V42.4991ZM97.0869 36.6483V36.584H97.0221V36.6483H97.0869ZM98.0555 36.6483H98.1203V36.584H98.0555V36.6483ZM98.0555 42.4991V42.5634H98.1203V42.4991H98.0555ZM94.0042 39.908H93.9394V39.9723H94.0042V39.908ZM94.0042 39.0304V38.9661H93.9394V39.0304H94.0042ZM97.2975 39.0304H97.3622V38.9661H97.2975V39.0304ZM97.2975 39.908V39.9723H97.3622V39.908H97.2975ZM93.3389 42.4991H93.4036V36.6483H93.3389H93.2741V42.4991H93.3389ZM93.3389 36.6483V36.7126H94.3075V36.6483V36.584H93.3389V36.6483ZM94.3075 36.6483H94.2427V42.4991H94.3075H94.3722V36.6483H94.3075ZM94.3075 42.4991V42.4349H93.3389V42.4991V42.5634H94.3075V42.4991ZM97.0869 42.4991H97.1517V36.6483H97.0869H97.0221V42.4991H97.0869ZM97.0869 36.6483V36.7126H98.0555V36.6483V36.584H97.0869V36.6483ZM98.0555 36.6483H97.9907V42.4991H98.0555H98.1203V36.6483H98.0555ZM98.0555 42.4991V42.4349H97.0869V42.4991V42.5634H98.0555V42.4991ZM94.0042 39.908H94.069V39.0304H94.0042H93.9394V39.908H94.0042ZM94.0042 39.0304V39.0947H97.2975V39.0304V38.9661H94.0042V39.0304ZM97.2975 39.0304H97.2327V39.908H97.2975H97.3622V39.0304H97.2975ZM97.2975 39.908V39.8437H94.0042V39.908V39.9723H97.2975V39.908ZM100.598 42.4991H100.534V42.5634H100.598V42.4991ZM100.598 36.6483V36.584H100.534V36.6483H100.598ZM101.567 36.6483H101.632V36.584H101.567V36.6483ZM101.567 42.4991V42.5634H101.632V42.4991H101.567ZM101.264 42.4991H101.199V42.5634H101.264V42.4991ZM101.264 41.6215V41.5572H101.199V41.6215H101.264ZM104.565 41.6215H104.63V41.5572H104.565V41.6215ZM104.565 42.4991V42.5634H104.63V42.4991H104.565ZM101.264 39.9331H101.199V39.9974H101.264V39.9331ZM101.264 39.0889V39.0246H101.199V39.0889H101.264ZM104.279 39.0889H104.344V39.0246H104.279V39.0889ZM104.279 39.9331V39.9974H104.344V39.9331H104.279ZM101.264 37.5259H101.199V37.5902H101.264V37.5259ZM101.264 36.6483V36.584H101.199V36.6483H101.264ZM104.523 36.6483H104.588V36.584H104.523V36.6483ZM104.523 37.5259V37.5902H104.588V37.5259H104.523ZM100.598 42.4991H100.663V36.6483H100.598H100.534V42.4991H100.598ZM100.598 36.6483V36.7126H101.567V36.6483V36.584H100.598V36.6483ZM101.567 36.6483H101.502V42.4991H101.567H101.632V36.6483H101.567ZM101.567 42.4991V42.4349H100.598V42.4991V42.5634H101.567V42.4991ZM101.264 42.4991H101.329V41.6215H101.264H101.199V42.4991H101.264ZM101.264 41.6215V41.6858H104.565V41.6215V41.5572H101.264V41.6215ZM104.565 41.6215H104.501V42.4991H104.565H104.63V41.6215H104.565ZM104.565 42.4991V42.4349H101.264V42.4991V42.5634H104.565V42.4991ZM101.264 39.9331H101.329V39.0889H101.264H101.199V39.9331H101.264ZM101.264 39.0889V39.1532H104.279V39.0889V39.0246H101.264V39.0889ZM104.279 39.0889H104.214V39.9331H104.279H104.344V39.0889H104.279ZM104.279 39.9331V39.8688H101.264V39.9331V39.9974H104.279V39.9331ZM101.264 37.5259H101.329V36.6483H101.264H101.199V37.5259H101.264ZM101.264 36.6483V36.7126H104.523V36.6483V36.584H101.264V36.6483ZM104.523 36.6483H104.459V37.5259H104.523H104.588V36.6483H104.523ZM104.523 37.5259V37.4616H101.264V37.5259V37.5902H104.523V37.5259ZM110.444 42.4991H110.38V42.5634H110.444V42.4991ZM110.444 41.6215V41.5572H110.38V41.6215H110.444ZM113.055 41.3624L113.024 41.3064L113.023 41.3067L113.055 41.3624ZM113.771 40.6436L113.715 40.6125L113.714 40.6128L113.771 40.6436ZM113.047 37.785L113.015 37.8407L113.015 37.841L113.047 37.785ZM110.444 37.5259H110.38V37.5902H110.444V37.5259ZM110.444 36.6483V36.584H110.38V36.6483H110.444ZM113.207 36.8739L113.182 36.9333L113.183 36.9336L113.207 36.8739ZM114.159 37.4925L114.113 37.5379V37.5384L114.114 37.5389L114.159 37.4925ZM114.799 38.4202L114.739 38.4452V38.4456L114.799 38.4202ZM114.167 41.6633L114.212 41.7093L114.213 41.7088L114.167 41.6633ZM113.215 42.2818L113.239 42.3416L113.241 42.3412L113.215 42.2818ZM109.779 42.4991H109.714V42.5634H109.779V42.4991ZM109.779 36.6483V36.584H109.714V36.6483H109.779ZM110.748 36.6483H110.812V36.584H110.748V36.6483ZM110.748 42.4991V42.5634H110.812V42.4991H110.748ZM110.444 42.4991H110.509V41.6215H110.444H110.38V42.4991H110.444ZM110.444 41.6215V41.6858H111.994V41.6215V41.5572H110.444V41.6215ZM111.994 41.6215V41.6858C112.408 41.6858 112.774 41.5973 113.088 41.4181L113.055 41.3624L113.023 41.3067C112.731 41.473 112.389 41.5572 111.994 41.5572V41.6215ZM113.055 41.3624L113.087 41.4184C113.407 41.2398 113.654 40.9915 113.828 40.6744L113.771 40.6436L113.714 40.6128C113.552 40.9086 113.322 41.1395 113.024 41.3064L113.055 41.3624ZM113.771 40.6436L113.828 40.6747C114.008 40.3519 114.097 39.9815 114.097 39.5653H114.032H113.968C113.968 39.9628 113.883 40.3112 113.715 40.6125L113.771 40.6436ZM114.032 39.5653H114.097C114.097 39.1546 114.008 38.7897 113.828 38.4723L113.771 38.5038L113.715 38.5354C113.883 38.831 113.968 39.1737 113.968 39.5653H114.032ZM113.771 38.5038L113.828 38.4723C113.648 38.1555 113.398 37.9075 113.079 37.729L113.047 37.785L113.015 37.841C113.314 38.008 113.546 38.2391 113.715 38.5354L113.771 38.5038ZM113.047 37.785L113.079 37.7293C112.765 37.5501 112.403 37.4616 111.994 37.4616V37.5259V37.5902C112.384 37.5902 112.723 37.6743 113.015 37.8407L113.047 37.785ZM111.994 37.5259V37.4616H110.444V37.5259V37.5902H111.994V37.5259ZM110.444 37.5259H110.509V36.6483H110.444H110.38V37.5259H110.444ZM110.444 36.6483V36.7126H112.019V36.6483V36.584H110.444V36.6483ZM112.019 36.6483V36.7126C112.439 36.7126 112.826 36.7864 113.182 36.9333L113.207 36.8739L113.232 36.8145C112.858 36.6606 112.454 36.584 112.019 36.584V36.6483ZM113.207 36.8739L113.183 36.9336C113.54 37.0754 113.85 37.2768 114.113 37.5379L114.159 37.4925L114.205 37.447C113.929 37.1732 113.604 36.9623 113.231 36.8143L113.207 36.8739ZM114.159 37.4925L114.114 37.5389C114.383 37.7946 114.591 38.0964 114.739 38.4452L114.799 38.4202L114.858 38.3952C114.704 38.0307 114.485 37.7141 114.203 37.446L114.159 37.4925ZM114.799 38.4202L114.739 38.4456C114.887 38.7879 114.961 39.1637 114.961 39.5737H115.026H115.091C115.091 39.1479 115.014 38.7547 114.858 38.3949L114.799 38.4202ZM115.026 39.5737H114.961C114.961 39.9781 114.888 40.354 114.739 40.7022L114.799 40.7272L114.858 40.7522C115.014 40.3871 115.091 39.9941 115.091 39.5737H115.026ZM114.799 40.7272L114.739 40.7022C114.591 41.0513 114.385 41.3564 114.122 41.6178L114.167 41.6633L114.213 41.7088C114.488 41.4353 114.704 41.1163 114.858 40.7522L114.799 40.7272ZM114.167 41.6633L114.122 41.6173C113.859 41.8732 113.548 42.075 113.191 42.2225L113.215 42.2818L113.241 42.3412C113.613 42.1878 113.937 41.9771 114.212 41.7093L114.167 41.6633ZM113.215 42.2818L113.191 42.2222C112.834 42.3637 112.45 42.4349 112.036 42.4349V42.4991V42.5634C112.465 42.5634 112.866 42.4896 113.239 42.3415L113.215 42.2818ZM112.036 42.4991V42.4349H110.444V42.4991V42.5634H112.036V42.4991ZM109.779 42.4991H109.844V36.6483H109.779H109.714V42.4991H109.779ZM109.779 36.6483V36.7126H110.748V36.6483V36.584H109.779V36.6483ZM110.748 36.6483H110.683V42.4991H110.748H110.812V36.6483H110.748ZM110.748 42.4991V42.4349H109.779V42.4991V42.5634H110.748V42.4991ZM117.277 42.4991H117.212V42.5634H117.277V42.4991ZM117.277 36.6483V36.584H117.212V36.6483H117.277ZM118.246 36.6483H118.31V36.584H118.246V36.6483ZM118.246 42.4991V42.5634H118.31V42.4991H118.246ZM117.277 42.4991H117.342V36.6483H117.277H117.212V42.4991H117.277ZM117.277 36.6483V36.7126H118.246V36.6483V36.584H117.277V36.6483ZM118.246 36.6483H118.181V42.4991H118.246H118.31V36.6483H118.246ZM118.246 42.4991V42.4349H117.277V42.4991V42.5634H118.246V42.4991ZM122.732 42.4991L122.671 42.5233L122.688 42.5634H122.732V42.4991ZM120.348 36.6483V36.584H120.252L120.288 36.6724L120.348 36.6483ZM121.401 36.6483L121.461 36.6249L121.445 36.584H121.401V36.6483ZM123.262 41.3875V41.4518H123.357L123.322 41.3641L123.262 41.3875ZM122.892 41.3875L122.831 41.3639L122.796 41.4518H122.892V41.3875ZM124.77 36.6483V36.584H124.726L124.71 36.6247L124.77 36.6483ZM125.806 36.6483L125.866 36.6725L125.902 36.584H125.806V36.6483ZM123.405 42.4991V42.5634H123.449L123.466 42.5234L123.405 42.4991ZM122.732 42.4991L122.792 42.475L120.408 36.6241L120.348 36.6483L120.288 36.6724L122.671 42.5233L122.732 42.4991ZM120.348 36.6483V36.7126H121.401V36.6483V36.584H120.348V36.6483ZM121.401 36.6483L121.341 36.6716L123.202 41.4108L123.262 41.3875L123.322 41.3641L121.461 36.6249L121.401 36.6483ZM123.262 41.3875V41.3232H122.892V41.3875V41.4518H123.262V41.3875ZM122.892 41.3875L122.952 41.411L124.83 36.6718L124.77 36.6483L124.71 36.6247L122.831 41.3639L122.892 41.3875ZM124.77 36.6483V36.7126H125.806V36.6483V36.584H124.77V36.6483ZM125.806 36.6483L125.746 36.624L123.345 42.4749L123.405 42.4991L123.466 42.5234L125.866 36.6725L125.806 36.6483ZM123.405 42.4991V42.4349H122.732V42.4991V42.5634H123.405V42.4991ZM127.914 42.4991H127.849V42.5634H127.914V42.4991ZM127.914 36.6483V36.584H127.849V36.6483H127.914ZM128.883 36.6483H128.947V36.584H128.883V36.6483ZM128.883 42.4991V42.5634H128.947V42.4991H128.883ZM127.914 42.4991H127.979V36.6483H127.914H127.849V42.4991H127.914ZM127.914 36.6483V36.7126H128.883V36.6483V36.584H127.914V36.6483ZM128.883 36.6483H128.818V42.4991H128.883H128.947V36.6483H128.883ZM128.883 42.4991V42.4349H127.914V42.4991V42.5634H128.883V42.4991ZM131.423 42.4991H131.358V42.5634H131.423V42.4991ZM131.423 36.6483V36.584H131.358V36.6483H131.423ZM132.097 36.6483L132.159 36.6318L132.147 36.584H132.097V36.6483ZM132.392 37.7516H132.456V37.7432L132.454 37.7351L132.392 37.7516ZM132.392 42.4991V42.5634H132.456V42.4991H132.392ZM135.508 42.4991L135.456 42.5382L135.557 42.6689L135.572 42.505L135.508 42.4991ZM131.979 37.9271L131.914 37.9212L131.912 37.9463L131.927 37.9662L131.979 37.9271ZM132.097 36.6483L132.148 36.6092L132.047 36.4785L132.032 36.6424L132.097 36.6483ZM135.626 41.2203L135.69 41.2262L135.693 41.2011L135.677 41.1812L135.626 41.2203ZM135.508 42.4991L135.445 42.5168L135.459 42.5634H135.508V42.4991ZM135.213 41.4711H135.148V41.4801L135.15 41.4887L135.213 41.4711ZM135.213 36.6483V36.584H135.148V36.6483H135.213ZM136.182 36.6483H136.246V36.584H136.182V36.6483ZM136.182 42.4991V42.5634H136.246V42.4991H136.182ZM131.423 42.4991H131.488V36.6483H131.423H131.358V42.4991H131.423ZM131.423 36.6483V36.7126H132.097V36.6483V36.584H131.423V36.6483ZM132.097 36.6483L132.034 36.6647L132.329 37.768L132.392 37.7516L132.454 37.7351L132.159 36.6318L132.097 36.6483ZM132.392 37.7516H132.327V42.4991H132.392H132.456V37.7516H132.392ZM132.392 42.4991V42.4349H131.423V42.4991V42.5634H132.392V42.4991ZM135.508 42.4991L135.559 42.4601L132.03 37.888L131.979 37.9271L131.927 37.9662L135.456 42.5382L135.508 42.4991ZM131.979 37.9271L132.043 37.9329L132.161 36.6541L132.097 36.6483L132.032 36.6424L131.914 37.9212L131.979 37.9271ZM132.097 36.6483L132.045 36.6873L135.574 41.2594L135.626 41.2203L135.677 41.1812L132.148 36.6092L132.097 36.6483ZM135.626 41.2203L135.561 41.2145L135.443 42.4933L135.508 42.4991L135.572 42.505L135.69 41.2262L135.626 41.2203ZM135.508 42.4991L135.57 42.4815L135.275 41.4534L135.213 41.4711L135.15 41.4887L135.445 42.5168L135.508 42.4991ZM135.213 41.4711H135.278V36.6483H135.213H135.148V41.4711H135.213ZM135.213 36.6483V36.7126H136.182V36.6483V36.584H135.213V36.6483ZM136.182 36.6483H136.117V42.4991H136.182H136.246V36.6483H136.182ZM136.182 42.4991V42.4349H135.508V42.4991V42.5634H136.182V42.4991ZM138.723 42.4991H138.659V42.5634H138.723V42.4991ZM138.723 36.6483V36.584H138.659V36.6483H138.723ZM139.692 36.6483H139.757V36.584H139.692V36.6483ZM139.692 42.4991V42.5634H139.757V42.4991H139.692ZM139.389 42.4991H139.324V42.5634H139.389V42.4991ZM139.389 41.6215V41.5572H139.324V41.6215H139.389ZM142.69 41.6215H142.755V41.5572H142.69V41.6215ZM142.69 42.4991V42.5634H142.755V42.4991H142.69ZM139.389 39.9331H139.324V39.9974H139.389V39.9331ZM139.389 39.0889V39.0246H139.324V39.0889H139.389ZM142.404 39.0889H142.469V39.0246H142.404V39.0889ZM142.404 39.9331V39.9974H142.469V39.9331H142.404ZM139.389 37.5259H139.324V37.5902H139.389V37.5259ZM139.389 36.6483V36.584H139.324V36.6483H139.389ZM142.648 36.6483H142.713V36.584H142.648V36.6483ZM142.648 37.5259V37.5902H142.713V37.5259H142.648ZM138.723 42.4991H138.788V36.6483H138.723H138.659V42.4991H138.723ZM138.723 36.6483V36.7126H139.692V36.6483V36.584H138.723V36.6483ZM139.692 36.6483H139.627V42.4991H139.692H139.757V36.6483H139.692ZM139.692 42.4991V42.4349H138.723V42.4991V42.5634H139.692V42.4991ZM139.389 42.4991H139.454V41.6215H139.389H139.324V42.4991H139.389ZM139.389 41.6215V41.6858H142.69V41.6215V41.5572H139.389V41.6215ZM142.69 41.6215H142.626V42.4991H142.69H142.755V41.6215H142.69ZM142.69 42.4991V42.4349H139.389V42.4991V42.5634H142.69V42.4991ZM139.389 39.9331H139.454V39.0889H139.389H139.324V39.9331H139.389ZM139.389 39.0889V39.1532H142.404V39.0889V39.0246H139.389V39.0889ZM142.404 39.0889H142.339V39.9331H142.404H142.469V39.0889H142.404ZM142.404 39.9331V39.8688H139.389V39.9331V39.9974H142.404V39.9331ZM139.389 37.5259H139.454V36.6483H139.389H139.324V37.5259H139.389ZM139.389 36.6483V36.7126H142.648V36.6483V36.584H139.389V36.6483ZM142.648 36.6483H142.583V37.5259H142.648H142.713V36.6483H142.648ZM142.648 37.5259V37.4616H139.389V37.5259V37.5902H142.648V37.5259Z" fill="#413B89"/>
</g>
<path d="M0 39.4141H29.1549" stroke="#413B89" stroke-width="8"/>
<path d="M152.254 39.4141H181.409" stroke="#413B89" stroke-width="8"/>
</svg>
