<svg width="39" height="36" viewBox="0 0 39 36" fill="none" xmlns="http://www.w3.org/2000/svg">
<path fill-rule="evenodd" clip-rule="evenodd" d="M17.9258 0.09547C15.7336 0.595521 14.0295 1.95702 13.0823 3.96519C12.6917 4.79322 12.5187 5.46422 12.4543 6.39963L12.4026 7.153L11.7439 7.53683C7.44907 10.0398 4.62708 14.4277 4.15812 19.3323L4.09992 19.9411L3.56557 20.219C2.00774 21.0292 0.777184 22.5578 0.202913 24.396C0.029272 24.9518 0 25.2268 0 26.3013C0 27.3758 0.029272 27.6509 0.202913 28.2066C0.937055 30.5566 2.62973 32.2493 4.97973 32.9834C5.54213 33.1591 5.80359 33.186 6.92832 33.1836C8.15368 33.181 8.27154 33.1656 9.0062 32.9115L9.78503 32.6422L10.0888 32.8815C11.2496 33.7963 13.0709 34.754 14.6045 35.2564C17.0731 36.0651 19.9649 36.2222 22.5502 35.6882C24.5606 35.273 27.046 34.1243 28.6232 32.8815L28.9269 32.6422L29.7058 32.9115C30.4404 33.1656 30.5583 33.181 31.7837 33.1836C32.9094 33.186 33.169 33.1592 33.7292 32.9833C36.1229 32.2317 37.7573 30.5972 38.509 28.2036C38.6829 27.6498 38.712 27.3769 38.712 26.3013C38.712 25.2268 38.6827 24.9518 38.5091 24.396C37.9348 22.5578 36.7042 21.0292 35.1464 20.219L34.612 19.9411L34.5539 19.3323C34.0916 14.4983 31.3266 10.1374 27.1409 7.64093L26.3087 7.14451L26.261 6.3449C26.165 4.73519 25.4593 3.20836 24.2546 2.00327C23.4329 1.18157 22.6378 0.690699 21.5082 0.308256C20.7951 0.0668908 20.5638 0.0306905 19.5725 0.00540215C18.8306 -0.0134775 18.269 0.0172666 17.9258 0.09547ZM13.3675 10.4032C13.9008 11.4085 14.9866 12.4384 16.1516 13.0437C17.3094 13.6454 17.9203 13.787 19.356 13.787C20.7916 13.787 21.4025 13.6454 22.5603 13.0437C23.7253 12.4384 24.8112 11.4085 25.3445 10.4032C25.4564 10.1923 25.5793 10.0198 25.6177 10.0198C25.6562 10.0198 25.929 10.1819 26.2241 10.3799C28.4113 11.8483 30.1 13.9758 31.0221 16.4246C31.2312 16.9798 31.5957 18.4258 31.6836 19.0482C31.7278 19.3611 31.72 19.373 31.4714 19.373C31.0418 19.373 29.9128 19.6332 29.3154 19.8698C27.2753 20.678 25.8156 22.2634 25.1449 24.3991C24.971 24.9528 24.9419 25.2257 24.9419 26.3013C24.9419 27.3766 24.9711 27.6499 25.1448 28.2029C25.3938 28.9958 25.823 29.8614 26.2344 30.4004C26.4048 30.6236 26.5438 30.8351 26.5433 30.8704C26.541 31.0734 24.5643 32.1152 23.4058 32.524C20.907 33.4057 17.812 33.406 15.3061 32.5248C14.2479 32.1528 12.7563 31.3888 12.1762 30.9217C12.1569 30.9062 12.2981 30.6689 12.4899 30.3945C12.9581 29.7244 13.3217 28.9848 13.567 28.2036C13.7409 27.6498 13.77 27.3769 13.77 26.3013C13.77 24.9164 13.6342 24.2918 13.1021 23.2299C12.0242 21.0784 9.8939 19.5946 7.60521 19.4011C7.0228 19.3519 6.97742 19.3339 7.01137 19.1656C7.03155 19.0653 7.09442 18.7105 7.15115 18.377C7.38134 17.023 8.16589 15.1005 8.98888 13.8736C9.58758 12.9812 10.4984 11.9537 11.2392 11.3352C12.0053 10.6954 12.9366 10.0313 13.0774 10.0242C13.1251 10.0218 13.2556 10.1923 13.3675 10.4032Z" fill="#6D83FF"/>
</svg>
