<svg width="41" height="36" viewBox="0 0 41 36" fill="none" xmlns="http://www.w3.org/2000/svg">
<path fill-rule="evenodd" clip-rule="evenodd" d="M16.6179 0.143182C16.5942 0.221891 16.4275 0.909573 16.2474 1.67122C16.0673 2.43286 15.8725 3.10295 15.8146 3.16023C15.7565 3.21758 15.3418 3.34383 14.8929 3.4407C14.4439 3.53765 13.763 3.72355 13.3799 3.85388C12.9967 3.9843 12.6211 4.09091 12.5453 4.09091C12.4697 4.09091 11.9 3.55885 11.2794 2.90864L10.1511 1.72636L9.69824 1.98368C9.44918 2.12523 8.92833 2.42714 8.54084 2.65459L7.83614 3.06818L8.27403 4.54091C8.5149 5.35091 8.71233 6.07565 8.71282 6.15142C8.71355 6.27709 6.31342 8.75389 6.18971 8.75504C6.16034 8.75536 5.44377 8.54894 4.59728 8.29636C3.75087 8.04379 3.04822 7.85029 3.03595 7.86633C2.93523 7.99773 1.75909 10.0878 1.75909 10.1354C1.75909 10.1693 2.27455 10.6854 2.90455 11.2822C3.73934 12.0731 4.05 12.4191 4.05 12.5581C4.05 12.6631 3.94265 13.0773 3.8115 13.4787C3.68035 13.8801 3.50967 14.5276 3.43219 14.9175C3.35479 15.3074 3.24434 15.691 3.18674 15.77C3.11474 15.8688 2.60133 16.0292 1.54105 16.284L0 16.6545V18V19.3455L1.53254 19.716C2.37543 19.9197 3.11605 20.1416 3.17831 20.2091C3.24057 20.2766 3.35487 20.6602 3.43227 21.0616C3.50967 21.463 3.68035 22.1199 3.8115 22.5213C3.94265 22.9227 4.05 23.3369 4.05 23.4419C4.05 23.5809 3.73934 23.9269 2.90455 24.7178C2.27455 25.3146 1.75909 25.8307 1.75909 25.8646C1.75909 25.9127 2.93768 28.0065 3.03693 28.1347C3.04969 28.1512 3.73557 27.9579 4.56095 27.7051C5.38642 27.4523 6.10208 27.2455 6.15125 27.2455C6.29125 27.2455 8.71364 29.6879 8.71364 29.829C8.71364 29.8982 8.51228 30.6227 8.26617 31.439C8.02014 32.2554 7.82681 32.9283 7.83663 32.9344C8.54583 33.374 10.0728 34.2008 10.1429 34.1833C10.1963 34.17 10.6901 33.6805 11.2403 33.0955C11.7907 32.5105 12.3127 31.9984 12.4006 31.9577C12.5139 31.9051 12.804 31.9583 13.3987 32.141C13.8598 32.2825 14.5604 32.4691 14.9558 32.5554C15.3511 32.6418 15.7258 32.755 15.7885 32.8071C15.8512 32.8592 16.0359 33.4608 16.1989 34.144C16.3618 34.8273 16.5314 35.5245 16.5757 35.6932L16.6563 36H17.5123H18.3682V32.4907V28.9813L17.5295 28.9241C15.8554 28.8099 14.4317 28.4387 13.1002 27.7691C9.98059 26.2002 7.7931 23.2419 7.19075 19.7774C7.0911 19.2042 7.06917 18.6883 7.09953 17.6318C7.13405 16.4288 7.17267 16.1138 7.38573 15.3C7.88163 13.4048 8.78482 11.8015 10.1473 10.3973C12.1239 8.36035 14.5762 7.24205 17.449 7.06762L18.3682 7.01174V3.50591V0H17.5146C16.7726 0 16.6554 0.0187364 16.6179 0.143182ZM29.0045 0.661173C28.2071 1.02215 27.823 1.61845 27.823 2.49545C27.823 3.16882 28.0061 3.58846 28.4824 4.00664C28.8997 4.37302 29.2403 4.5 29.8055 4.5C31.1058 4.5 32.0848 3.28958 31.7873 2.04963C31.4953 0.831927 30.131 0.151282 29.0045 0.661173ZM19.2682 2.49545V3.02727H23.0727H26.8773V2.49545V1.96364H23.0727H19.2682V2.49545ZM34.8808 6.7383C33.6441 7.08128 33.023 8.45885 33.5954 9.5886C34.2753 10.93 36.151 11.0905 37.0264 9.88192C38.1396 8.34521 36.6986 6.23405 34.8808 6.7383ZM17.1 7.99364C12.895 8.37564 9.37072 11.3791 8.23876 15.5455C8.04387 16.2628 8.02759 16.4522 8.02759 18C8.02759 19.5478 8.04387 19.7372 8.23876 20.4545C9.26321 24.2251 12.2263 27.0532 15.9545 27.8186C19.1706 28.4789 22.4254 27.5515 24.8545 25.283C29.3091 21.123 28.9971 13.9618 24.1946 10.1335C22.2204 8.55974 19.5927 7.76716 17.1 7.99364ZM22.95 8.21168C22.95 8.22813 23.2416 8.41099 23.5981 8.61807C23.9545 8.82524 24.2696 9.03265 24.2984 9.07912C24.3331 9.13541 25.7083 9.16364 28.4162 9.16364H32.4818V8.67273V8.18182H27.7159C25.0946 8.18182 22.95 8.19524 22.95 8.21168ZM19.7753 10.9543C23.5386 11.9348 25.8654 15.6587 25.0832 19.449C24.5081 22.2361 22.3805 24.4019 19.5433 25.0885C18.7078 25.2907 17.2109 25.2728 16.2981 25.0498C13.5484 24.3779 11.4566 22.215 10.8659 19.4332C10.7102 18.7003 10.7646 16.7937 10.9616 16.0773C11.1725 15.3099 11.7725 14.1466 12.299 13.484C13.424 12.0683 14.906 11.1878 16.7598 10.8336C17.5396 10.6846 18.9579 10.7413 19.7753 10.9543ZM17.0981 11.6937C13.9095 12.2037 11.6591 14.8129 11.6591 18C11.6591 20.9221 13.5186 23.3445 16.3807 24.151C17.1856 24.3777 18.6151 24.3961 19.4579 24.1904C21.2109 23.7627 22.7692 22.5412 23.5979 20.9455C24.1543 19.874 24.2989 19.2668 24.2989 18C24.2989 17.0714 24.2684 16.7983 24.1078 16.2853C23.7058 15.0012 22.9991 13.909 22.0644 13.1274C21.4256 12.5932 20.2691 12.0035 19.5136 11.827C18.8545 11.6729 17.6452 11.6062 17.0981 11.6937ZM38.2501 13.6693C37.5191 13.9766 37.2172 14.8549 37.6051 15.5451C38.0544 16.3445 39.197 16.4185 39.7568 15.6845C40.379 14.8687 39.8552 13.6845 38.8397 13.6111C38.6279 13.5958 38.3625 13.622 38.2501 13.6693ZM28.35 14.4488C28.35 14.4756 28.4078 14.6965 28.4785 14.9397L28.6071 15.3818H32.5694H36.5318V14.8909V14.4H32.4409C30.1909 14.4 28.35 14.4219 28.35 14.4488ZM38.08 19.9861C37.6559 20.2718 37.4318 20.6601 37.4318 21.1091C37.4318 22.0881 38.5111 22.7213 39.3545 22.2372C39.7894 21.9876 40.0745 21.447 40.0245 20.9664C39.9831 20.5676 39.6689 20.1064 39.3135 19.9226C38.9565 19.7381 38.4059 19.7664 38.08 19.9861ZM28.4877 21.0549C28.4119 21.2951 28.35 21.5161 28.35 21.5458C28.35 21.5756 30.1909 21.6 32.4409 21.6H36.5318V21.1091V20.6182H32.5786H28.6253L28.4877 21.0549ZM34.5001 25.4948C33.2333 26.1261 32.9986 27.8779 34.0564 28.8066C34.4699 29.1697 34.8094 29.2912 35.4042 29.2891C36.0618 29.2868 36.4825 29.0969 36.9128 28.6081C38.0632 27.301 37.1374 25.2906 35.3819 25.2836C35.0539 25.2823 34.8088 25.341 34.5001 25.4948ZM24.2984 26.9209C24.2696 26.9674 23.9472 27.179 23.5817 27.3913L22.9174 27.7773L25.3064 27.799C26.6204 27.8109 28.7665 27.8109 30.0754 27.799L32.4553 27.7773L32.4686 27.3068L32.482 26.8364H28.4163C25.7083 26.8364 24.3331 26.8646 24.2984 26.9209ZM28.9408 31.6779C28.1468 32.0629 27.6693 33.0204 27.8464 33.8727C28.2715 35.9178 31.0941 36.0791 31.7528 34.096C32.0726 33.1333 31.5474 32.0133 30.5881 31.6125C30.1826 31.4431 29.3577 31.4758 28.9408 31.6779ZM19.2682 33.5045V34.0364H23.0727H26.8773V33.5045V32.9727H23.0727H19.2682V33.5045Z" fill="#6D83FF"/>
</svg>
