<svg width="213" height="24" viewBox="0 0 213 24" fill="none" xmlns="http://www.w3.org/2000/svg">
<path d="M23.2031 23.8014V0.00390625H28.3628V11.3918L32.8809 5.17229H39.2941L33.3766 13.2607L40.9266 23.8014H34.5718L28.3628 15.1295V23.8014H23.2031Z" fill="white"/>
<path d="M57.0051 21.0715C55.1876 22.8921 52.9973 23.8014 50.4316 23.8014C47.866 23.8014 45.6752 22.8916 43.8582 21.0715C42.0406 19.2513 41.1328 17.0563 41.1328 14.4869C41.1328 11.9174 42.0411 9.7229 43.8582 7.90224C45.6752 6.0821 47.866 5.17229 50.4316 5.17229C51.8698 5.17229 53.249 5.49334 54.5708 6.13595V0.00390625H59.7305V14.4869C59.7305 17.0563 58.8217 19.2513 57.0051 21.0715ZM47.5021 17.4214C48.3086 18.2292 49.2851 18.6331 50.4316 18.6331C51.5782 18.6331 52.5547 18.2292 53.3612 17.4214C54.1676 16.6141 54.5708 15.6354 54.5708 14.4869C54.5708 13.3383 54.1671 12.3602 53.3612 11.5524C52.5547 10.7451 51.5782 10.3407 50.4316 10.3407C49.2851 10.3407 48.308 10.7451 47.5021 11.5524C46.6957 12.3602 46.2925 13.3383 46.2925 14.4869C46.2925 15.6354 46.6957 16.6141 47.5021 17.4214Z" fill="white"/>
<path d="M64.1869 7.91663C65.9942 6.10632 68.1705 5.20117 70.7165 5.20117C73.2624 5.20117 75.4336 6.10632 77.2315 7.91663C79.029 9.72693 79.9279 11.9168 79.9279 14.4867C79.9279 14.915 79.899 15.3334 79.8406 15.7425H66.7815C67.0534 16.5995 67.5491 17.2949 68.2682 17.8303C68.9868 18.3658 69.803 18.6335 70.717 18.6335C71.3968 18.6335 72.029 18.4781 72.6116 18.1664H79.1996C78.4805 19.8602 77.353 21.2226 75.8182 22.2546C74.2829 23.2866 72.5826 23.8024 70.717 23.8024C68.171 23.8024 65.9947 22.8972 64.1874 21.0869C62.3802 19.2766 61.4766 17.0769 61.4766 14.4878C61.4766 11.8987 62.3802 9.72849 64.1874 7.91767L64.1869 7.91663ZM67.0436 12.6469H74.3604C74.0104 11.9655 73.51 11.4161 72.8592 10.9971C72.2079 10.5787 71.4934 10.3695 70.7165 10.3695C69.9395 10.3695 69.1956 10.5787 68.5448 10.9971C67.8934 11.4161 67.3935 11.966 67.0436 12.6469Z" fill="white"/>
<path d="M98.5825 23.801H93.4229V13.4353C93.4229 12.5985 93.1215 11.873 92.5192 11.2599C91.9165 10.6468 91.1881 10.3403 90.3331 10.3403C89.478 10.3403 88.7734 10.6468 88.1614 11.2599C87.5493 11.873 87.2433 12.5985 87.2433 13.4353V23.801H82.0547V13.4353C82.0547 11.1776 82.8709 9.23574 84.5035 7.60978C86.136 5.98485 88.0787 5.17188 90.3336 5.17188C92.5885 5.17188 94.5503 5.97967 96.1637 7.59528C97.7766 9.2114 98.583 11.1574 98.583 13.4353V23.801H98.5825Z" fill="white"/>
<path d="M103.323 7.90183C105.14 6.08169 107.331 5.17188 109.896 5.17188C112.462 5.17188 114.652 6.08221 116.47 7.90183C118.287 9.72249 119.195 11.917 119.195 14.4865V23.801H114.036V22.8084C112.753 23.4701 111.373 23.801 109.896 23.801C107.331 23.801 105.14 22.8912 103.323 21.0711C101.506 19.2509 100.598 17.0559 100.598 14.4865C100.598 11.917 101.506 9.72249 103.323 7.90183ZM112.826 11.5514C112.019 10.7442 111.043 10.3397 109.896 10.3397C108.749 10.3397 107.772 10.7442 106.966 11.5514C106.16 12.3592 105.757 13.3374 105.757 14.4859C105.757 15.6345 106.16 16.5836 106.966 17.3914C107.773 18.1992 108.749 18.6031 109.896 18.6031C111.043 18.6031 112.019 18.1992 112.826 17.3914C113.631 16.5836 114.035 15.6153 114.035 14.4859C114.035 13.3566 113.631 12.3592 112.826 11.5514Z" fill="white"/>
<path d="M122.023 14.4864C122.023 11.917 122.927 9.72249 124.734 7.90183C126.542 6.08169 128.728 5.17188 131.293 5.17188V10.3403C130.146 10.3403 129.175 10.7447 128.378 11.552C127.581 12.3598 127.183 13.3379 127.183 14.4864V23.801H122.023V14.4864Z" fill="white"/>
<path d="M0.0589017 23.5679L8.94883 0.170128C8.98657 0.0701886 9.08324 0.00390625 9.19076 0.00390625H12.8456C12.9531 0.00390625 13.0498 0.0701886 13.0875 0.170128L21.964 23.6508C22.0276 23.819 21.902 23.9982 21.7215 23.9977L17.6004 23.9858C17.494 23.9858 17.3988 23.9205 17.3606 23.8221L11.1707 8.00477C11.0843 7.78366 10.7685 7.78728 10.6868 8.00995L4.89907 23.8294C4.86185 23.9309 4.76467 23.9982 4.65611 23.9982H0.259993C0.0661381 23.9982 -0.0620642 23.7921 0.0309861 23.6228C0.0346048 23.6166 0.0382245 23.6104 0.0418431 23.6036C0.0485634 23.5917 0.0547655 23.5793 0.059935 23.5663L0.0589017 23.5679Z" fill="white"/>
<path d="M7.09885 18.3047H15.0422C15.2056 18.3047 15.3054 18.458 15.2175 18.576L11.2458 23.9174C11.1641 24.0271 10.9765 24.0271 10.8948 23.9174L6.92309 18.576C6.83572 18.4585 6.93497 18.3047 7.09833 18.3047H7.09885Z" fill="white"/>
<path d="M144.891 0H150.051V18.6328H158.361V23.8022H144.891V0Z" fill="white"/>
<path d="M162.398 7.9004C164.215 6.08025 166.407 5.16992 168.973 5.16992C171.538 5.16992 173.73 6.08025 175.547 7.9004C177.364 9.72106 178.273 11.9161 178.273 14.4861V23.8027H173.112V22.8095C171.829 23.4718 170.449 23.8027 168.972 23.8027C166.407 23.8027 164.215 22.8929 162.398 21.0722C160.58 19.2521 159.672 17.0565 159.672 14.4866C159.672 11.9166 160.58 9.72157 162.398 7.90091L162.398 7.9004ZM171.903 11.551C171.096 10.7432 170.119 10.3388 168.973 10.3388C167.826 10.3388 166.849 10.7432 166.043 11.551C165.236 12.3588 164.833 13.3375 164.833 14.4861C164.833 15.6346 165.236 16.5843 166.043 17.3921C166.849 18.2004 167.826 18.6043 168.973 18.6043C170.12 18.6043 171.096 18.2004 171.903 17.3921C172.709 16.5843 173.113 15.6154 173.113 14.4861C173.113 13.3567 172.709 12.3588 171.903 11.551Z" fill="white"/>
<path d="M196.336 21.0712C194.518 22.8919 192.327 23.8017 189.761 23.8017C187.196 23.8017 185.004 22.8919 183.187 21.0712C181.369 19.2511 180.461 17.0555 180.461 14.4855V0H185.622V6.13308C186.943 5.49046 188.323 5.16941 189.762 5.16941C192.327 5.16941 194.519 6.07975 196.336 7.89989C198.153 9.72055 199.062 11.9156 199.062 14.4855C199.062 17.0555 198.153 19.2511 196.336 21.0712H196.336ZM186.845 17.4206C187.661 18.2289 188.633 18.6328 189.761 18.6328C190.888 18.6328 191.86 18.2289 192.676 17.4206C193.493 16.6128 193.901 15.6346 193.901 14.4855C193.901 13.3365 193.493 12.3583 192.676 11.5505C191.86 10.7427 190.888 10.3383 189.761 10.3383C188.634 10.3383 187.661 10.7427 186.845 11.5505C186.029 12.3589 185.621 13.337 185.621 14.4855C185.621 15.6341 186.029 16.6128 186.845 17.4206Z" fill="white"/>
<path d="M207.02 23.8022C205.29 23.8022 203.871 23.1891 202.764 21.9624C201.656 20.7356 201.102 19.2464 201.102 17.4941H206.35C206.291 17.5723 206.262 17.6888 206.262 17.8446C206.262 18.0393 206.335 18.2149 206.481 18.3702C206.627 18.5261 206.806 18.6038 207.02 18.6038C207.234 18.6038 207.418 18.5308 207.574 18.3847C207.73 18.2387 207.807 18.059 207.807 17.8446C207.807 17.4749 207.622 17.2217 207.253 17.0855L204.921 16.1508C203.852 15.7226 202.986 15.0313 202.326 14.0775C201.665 13.1237 201.334 12.0528 201.334 10.8649C201.334 9.26848 201.898 7.92007 203.025 6.82022C204.152 5.72037 205.513 5.16992 207.107 5.16992C208.603 5.16992 209.896 5.70587 210.985 6.77621C212.073 7.84706 212.647 9.13229 212.705 10.6314H207.486C207.388 10.4372 207.233 10.3393 207.02 10.3393C206.884 10.3393 206.767 10.3932 206.67 10.4999C206.572 10.607 206.524 10.7287 206.524 10.8649C206.524 11.0793 206.611 11.2253 206.786 11.303L209.323 12.3542C210.431 12.8213 211.32 13.5617 211.991 14.5736C212.662 15.5859 212.997 16.6863 212.997 17.8736C212.997 19.5286 212.414 20.9309 211.248 22.0794C210.081 23.2284 208.672 23.8027 207.02 23.8027V23.8022Z" fill="white"/>
</svg>
