<svg width="58" height="56" viewBox="0 0 58 56" fill="none" xmlns="http://www.w3.org/2000/svg">
<path fill-rule="evenodd" clip-rule="evenodd" d="M52.8307 27.0712V39.666C52.8307 41.3685 52.1388 42.9122 51.0245 44.0265C49.9102 45.1408 48.3665 45.8327 46.6641 45.8327H9.33072C7.62826 45.8327 6.08454 45.1408 4.97023 44.0265C3.85593 42.9122 3.16406 41.3685 3.16406 39.666V16.3327C3.16406 14.6228 3.862 13.073 4.98486 11.9576C6.09803 10.8519 7.63574 10.166 9.33072 10.166H35.9256C35.545 11.1158 35.2732 12.121 35.1257 13.166H9.33072C9.06394 13.166 8.80508 13.1989 8.55784 13.2608L27.4438 30.167L27.4451 30.1682C27.7603 30.4471 28.234 30.4473 28.5493 30.1685L28.551 30.167L37.2755 22.3528C37.8445 23.1808 38.5069 23.9396 39.2475 24.614L37.1453 26.4968L49.7295 40.4647C49.7956 40.2097 49.8307 39.9421 49.8307 39.666V27.8711C50.8758 27.7236 51.8809 27.4518 52.8307 27.0712ZM34.9106 28.4984L47.6764 42.6678C47.3587 42.7749 47.0184 42.8327 46.6641 42.8327H9.33072C9.01334 42.8327 8.70718 42.7863 8.41842 42.6997L21.8933 29.2248L25.4467 32.4057L25.4507 32.4092C26.9031 33.7002 29.0917 33.7002 30.5441 32.4092L30.5483 32.4055L34.9106 28.4984ZM19.6547 27.2208L6.2971 40.5783C6.21049 40.2896 6.16406 39.9834 6.16406 39.666V16.3327C6.16406 15.9703 6.2246 15.6225 6.33638 15.2986L19.6547 27.2208Z" fill="white"/>
<path d="M48 23.5C52.6944 23.5 56.5 19.6944 56.5 15C56.5 10.3056 52.6944 6.5 48 6.5C43.3056 6.5 39.5 10.3056 39.5 15C39.5 19.6944 43.3056 23.5 48 23.5Z" fill="#6D83FF" stroke="white" stroke-width="3"/>
</svg>
