<svg width="36" height="36" viewBox="0 0 36 36" fill="none" xmlns="http://www.w3.org/2000/svg">
<path fill-rule="evenodd" clip-rule="evenodd" d="M1.77757 0.117046C1.07646 0.359871 0.514561 0.876683 0.19267 1.5747C0.0360158 1.91446 0.0330613 1.96785 0.0330613 4.48832V7.05585L0.222144 7.45934C0.463773 7.97481 1.01337 8.5244 1.52884 8.76603L1.93233 8.95512H18.0058H34.0792L34.4827 8.76603C34.9982 8.5244 35.5478 7.97481 35.7894 7.45934L35.9785 7.05585V4.48832V1.92079L35.7894 1.5173C35.5478 1.00182 34.9982 0.452231 34.4827 0.210602L34.0792 0.0215193L18.1113 0.00590313C2.88984 -0.0089393 2.12627 -0.00373389 1.77757 0.117046ZM3.41038 13.6058C2.62486 13.7957 1.98924 14.169 1.33188 14.8262C0.4037 15.7545 0 16.7148 0 17.9942C0 19.2738 0.40377 20.2342 1.33188 21.1619C2.25661 22.0862 3.22665 22.4941 4.49986 22.4941C5.77933 22.4941 6.73959 22.0904 7.66784 21.1622C8.59602 20.234 8.99972 19.2737 8.99972 17.9942C8.99972 16.721 8.5918 15.751 7.66756 14.8262C6.99979 14.1582 6.37036 13.7934 5.55501 13.6018C4.98853 13.4687 3.96975 13.4706 3.41038 13.6058ZM13.7072 13.6574C12.7639 14.0466 12.1815 14.7597 12.0246 15.7176C11.934 16.2707 11.934 33.2236 12.0246 33.7767C12.164 34.628 12.7031 35.3491 13.4893 35.7361L13.9581 35.9669H24.0186H34.0792L34.4827 35.7779C34.9982 35.5362 35.5478 34.9866 35.7894 34.4712L35.9785 34.0677V24.7472V15.4267L35.7894 15.0232C35.5478 14.5077 34.9982 13.9581 34.4827 13.7165L34.0792 13.5274L24.0905 13.511L14.1017 13.4946L13.7072 13.6574ZM3.41038 27.1117C2.62486 27.3016 1.98924 27.6749 1.33188 28.3322C0.4037 29.2604 0 30.2207 0 31.5001C0 32.7798 0.40377 33.7401 1.33188 34.6678C2.25661 35.5921 3.22665 36 4.49986 36C5.77933 36 6.73959 35.5963 7.66784 34.6681C8.59602 33.7399 8.99972 32.7796 8.99972 31.5001C8.99972 30.2269 8.5918 29.2569 7.66756 28.3322C6.99979 27.6641 6.37036 27.2993 5.55501 27.1077C4.98853 26.9746 3.96975 26.9765 3.41038 27.1117Z" fill="#6D83FF"/>
</svg>
