<svg width="37" height="36" viewBox="0 0 37 36" fill="none" xmlns="http://www.w3.org/2000/svg">
<path fill-rule="evenodd" clip-rule="evenodd" d="M17.2677 0.0750463C16.3103 0.293596 15.2797 1.07175 14.8303 1.91548C14.2882 2.93293 14.288 4.33415 14.83 5.35274C15.1975 6.04357 16.0156 6.74622 16.8518 7.08931C17.0568 7.17347 17.049 7.17762 16.5746 7.2356C15.9681 7.30976 15.0444 7.62316 14.5114 7.93571C14.2893 8.06596 13.8215 8.45753 13.4717 8.80583C12.9596 9.31583 12.7715 9.56421 12.5051 10.0819C12.0299 11.0055 11.8923 11.6519 11.8917 12.9645C11.8912 13.9526 11.9024 14.0439 12.0509 14.2662C12.3914 14.7759 12.0897 14.7513 18.0082 14.7514C23.1724 14.7516 23.3238 14.7478 23.6067 14.6108C24.0969 14.3736 24.2048 14.0903 24.2048 13.0419C24.2048 12.0293 24.0904 11.3347 23.8008 10.5889C23.1028 8.79127 21.3695 7.44634 19.4801 7.23644L19.0395 7.18747L19.5883 6.91643C21.4256 6.00909 22.165 3.87651 21.2803 2.03692C21.0011 1.45642 20.4231 0.816116 19.907 0.515452C19.124 0.0592145 18.0915 -0.113036 17.2677 0.0750463ZM8.61926 7.44465C8.40141 7.56384 7.63515 8.32701 7.14655 8.91138C5.57083 10.7959 4.36634 13.2207 3.82884 15.5899C3.62844 16.4734 3.62126 16.6569 3.77423 16.9793C4.11198 17.691 5.16821 17.7678 5.59799 17.112C5.66265 17.0133 5.79163 16.608 5.88465 16.2115C6.1438 15.1065 6.44664 14.2433 6.93314 13.2229C7.60623 11.8109 8.33562 10.74 9.37729 9.63408C9.92795 9.04943 10.1321 8.71492 10.1321 8.39695C10.1321 8.11697 9.83113 7.63477 9.56853 7.4939C9.29932 7.34959 8.83689 7.32559 8.61926 7.44465ZM26.4734 7.50375C26.1576 7.69627 25.9644 8.03845 25.9642 8.40588C25.9638 8.79682 26.0345 8.92714 26.5249 9.4391C28.3057 11.2982 29.5244 13.5202 30.1239 16.0017C30.3686 17.0142 30.5068 17.291 30.8483 17.4531C31.479 17.7523 32.2189 17.4086 32.3702 16.7462C32.4869 16.235 31.918 14.1618 31.2435 12.641C30.5201 11.0094 29.4425 9.3966 28.2188 8.1138C27.9296 7.81061 27.6062 7.51768 27.5003 7.46294C27.2233 7.31968 26.744 7.33875 26.4734 7.50375ZM5.37627 21.3294C4.08137 21.6112 2.98243 22.6731 2.63505 23.9784C2.51782 24.4189 2.50494 25.2757 2.60873 25.7263C2.83657 26.7149 3.6893 27.7623 4.58904 28.1586C4.84925 28.2731 5.06294 28.3861 5.064 28.4097C5.06505 28.4332 4.87148 28.4727 4.63387 28.4976C4.0901 28.5544 3.1468 28.8766 2.61999 29.1855C2.39785 29.3158 1.92803 29.7085 1.57579 30.0582C1.03491 30.5954 0.884471 30.7976 0.60759 31.36C0.122152 32.346 -0.000351063 32.9186 7.5492e-07 34.2008C0.000282209 35.4351 0.0685349 35.6303 0.581697 35.8632C0.866528 35.9925 1.10464 35.9983 6.15189 35.9998C11.2825 36.0013 11.4324 35.9976 11.7153 35.8606C12.2041 35.624 12.3134 35.339 12.3128 34.3031C12.3119 32.8766 12.1084 32.0284 11.5333 31.0544C11.1527 30.4099 10.3087 29.5641 9.67471 29.1919C9.08507 28.8458 8.25541 28.5578 7.67224 28.4968C7.43842 28.4724 7.24893 28.4332 7.25111 28.4097C7.25329 28.3861 7.48289 28.2584 7.76125 28.1258C8.94835 27.5606 9.77815 26.2267 9.77815 24.8839C9.77815 23.2145 8.53581 21.672 6.91435 21.3284C6.33687 21.206 5.94221 21.2063 5.37627 21.3294ZM29.1654 21.3073C27.8593 21.5547 26.6673 22.7157 26.3537 24.0461C25.968 25.682 26.782 27.42 28.2644 28.1258C28.5427 28.2584 28.7723 28.3906 28.7745 28.4197C28.7767 28.4487 28.6727 28.4725 28.5434 28.4725C27.8963 28.4725 26.6061 28.9696 25.8909 29.4946C25.2174 29.989 24.562 30.8045 24.2045 31.593C23.8591 32.3548 23.7739 32.7907 23.7328 34.0057C23.6959 35.0982 23.7006 35.1522 23.857 35.4306C23.9637 35.6206 24.1194 35.7682 24.3103 35.8606C24.5932 35.9976 24.7431 36.0013 29.8737 35.9998C34.921 35.9983 35.1591 35.9925 35.4439 35.8632C35.6119 35.787 35.8052 35.6267 35.8878 35.4953C36.0247 35.2774 36.0321 35.1839 36.0052 34.0312C35.9725 32.6354 35.8847 32.251 35.3701 31.2518C35.028 30.5875 34.0598 29.5691 33.4056 29.1855C32.8788 28.8766 31.9355 28.5544 31.3917 28.4976C31.1541 28.4727 30.9605 28.4332 30.9616 28.4097C30.9627 28.3861 31.1763 28.2731 31.4366 28.1586C31.7826 28.0061 32.0432 27.8172 32.4076 27.4549C33.1545 26.712 33.4911 25.9132 33.4911 24.8839C33.4911 23.8758 33.1532 23.0576 32.4416 22.3427C31.5506 21.4476 30.3795 21.0775 29.1654 21.3073ZM13.1225 25.6933C12.1451 26.0391 12.2053 27.3976 13.2126 27.7267C14.6762 28.2048 16.1769 28.4271 17.9424 28.4271C19.688 28.4272 20.833 28.2726 22.393 27.8262C23.0482 27.6388 23.1814 27.5745 23.3881 27.3457C23.7125 26.9866 23.7755 26.6047 23.5767 26.2031C23.2594 25.562 22.8564 25.4747 21.6717 25.7903C20.1827 26.187 19.6675 26.2513 17.9776 26.2513C16.2943 26.2513 15.7754 26.187 14.3046 25.7967C13.3997 25.5565 13.4874 25.5642 13.1225 25.6933Z" fill="#6D83FF"/>
</svg>
