<svg width="38" height="36" viewBox="0 0 38 36" fill="none" xmlns="http://www.w3.org/2000/svg">
<path fill-rule="evenodd" clip-rule="evenodd" d="M18.3103 0.0989994C17.6796 0.295688 17.647 0.350393 14.941 5.76062C13.5453 8.55103 12.3987 10.8389 12.3931 10.8448C12.3874 10.8507 9.85419 11.2425 6.76371 11.7153C3.67316 12.1883 1.07121 12.6031 0.981504 12.6372C0.703419 12.743 0.270631 13.1717 0.130338 13.4805C-0.0360569 13.8467 -0.0439244 14.378 0.111294 14.766C0.20144 14.9912 1.19731 16.0117 4.3208 19.0794C7.87885 22.5737 8.40928 23.1225 8.38965 23.2893C8.37722 23.3947 7.96944 25.8633 7.48349 28.7751C6.50188 34.657 6.49269 34.755 6.87474 35.2992C7.18841 35.7459 7.63863 35.9783 8.19164 35.979C8.62891 35.9795 8.67729 35.9564 13.6754 33.3515C16.4488 31.9061 18.7625 30.7236 18.817 30.7236C18.8715 30.7236 21.1685 31.8966 23.9214 33.3304C26.9702 34.9182 29.0429 35.9556 29.2239 35.9843C29.7855 36.0735 30.4535 35.7748 30.7817 35.2878C31.1725 34.7078 31.1953 34.95 30.1703 28.7793L29.2301 23.1189L33.3222 19.0686C36.1381 16.2814 37.4494 14.9341 37.527 14.7484C37.6895 14.3595 37.6706 13.775 37.483 13.3874C37.3076 13.0251 36.8704 12.6705 36.4704 12.5661C36.325 12.5282 33.741 12.1271 30.7281 11.6747C27.7153 11.2224 25.2456 10.8481 25.24 10.8431C25.2343 10.8382 24.0979 8.56757 22.7148 5.79739C20.9002 2.16324 20.1253 0.683257 19.9322 0.482745C19.7602 0.30407 19.5347 0.166131 19.3008 0.09672C18.8647 -0.0327638 18.732 -0.0324696 18.3103 0.0989994Z" fill="#6D83FF"/>
</svg>
