<svg width="42" height="36" viewBox="0 0 42 36" fill="none" xmlns="http://www.w3.org/2000/svg">
<path fill-rule="evenodd" clip-rule="evenodd" d="M19.7498 0.0694951C16.7493 0.461881 14.3262 2.6997 13.7244 5.63435C13.2712 7.84424 13.9317 10.1657 15.4766 11.792C16.4325 12.7983 17.3993 13.395 18.7225 13.7955C19.3489 13.9851 19.5644 14.0097 20.5969 14.0097C21.6294 14.0097 21.8448 13.9851 22.4713 13.7955C23.797 13.3943 24.7337 12.8212 25.6749 11.8354C26.953 10.4966 27.5966 8.88583 27.5966 7.0256C27.5966 5.10245 26.9112 3.48254 25.503 2.07753C24.3448 0.92185 23.0167 0.271763 21.4035 0.0706215C20.6502 -0.0232712 20.4601 -0.0234321 19.7498 0.0694951ZM5.78896 5.2175C5.16357 5.3134 4.50986 5.57328 3.94458 5.95078C2.09215 7.1878 1.47175 9.6842 2.51784 11.6921C2.85858 12.346 3.75872 13.2293 4.42514 13.5635C6.1708 14.4391 8.15164 14.1221 9.53067 12.7465C10.1761 12.1026 10.5553 11.4531 10.7378 10.6789C11.1004 9.14072 10.6699 7.59378 9.5758 6.50263C8.5631 5.49274 7.14119 5.01016 5.78896 5.2175ZM34.1096 5.2175C33.4842 5.3134 32.8305 5.57328 32.2652 5.95078C30.4128 7.1878 29.7924 9.6842 30.8385 11.6921C31.1792 12.346 32.0794 13.2293 32.7458 13.5635C34.4915 14.4391 36.4723 14.1221 37.8513 12.7465C38.4967 12.1026 38.8759 11.4531 39.0584 10.6789C39.421 9.14072 38.9906 7.59378 37.8965 6.50263C36.8838 5.49274 35.4618 5.01016 34.1096 5.2175ZM4.74697 16.8009C4.05987 16.8929 3.63176 17.0308 2.97097 17.3733C1.54979 18.1101 0.545775 19.3594 0.158699 20.8729C0.00921081 21.4574 3.87809e-05 21.7801 3.87809e-05 26.4544C3.87809e-05 32.0176 -0.0155697 31.8536 0.579486 32.5296C0.758743 32.7333 1.09095 32.9978 1.31767 33.1174L1.72985 33.3348H4.52909H7.32825L7.32415 29.9959C7.31892 25.724 7.42657 24.5195 7.9748 22.7146C8.42737 21.2248 9.24384 19.7812 10.3482 18.5185C10.5863 18.2462 10.7812 18.0061 10.7812 17.9849C10.7812 17.9636 10.548 17.7944 10.2628 17.6086C9.59423 17.173 8.82104 16.9075 7.92049 16.8044C7.11641 16.7122 5.42328 16.7104 4.74697 16.8009ZM18.1565 16.8409C15.7009 17.2431 13.7257 18.3102 12.0869 20.1196C10.9384 21.3879 10.2428 22.8996 9.88797 24.8985C9.68305 26.0528 9.60034 29.5124 9.71314 32.2085L9.78386 33.898L10.0556 34.407C10.3697 34.9951 10.7979 35.399 11.4249 35.6983L11.8674 35.9095L18.2636 35.9667C29.8367 36.0704 30.2854 36.0189 31.1009 34.4922L31.4183 33.898L31.4412 29.766C31.4665 25.2074 31.4399 24.8515 30.9702 23.4496C29.8814 20.1997 26.9841 17.5672 23.7749 16.912C22.923 16.7381 19.081 16.6895 18.1565 16.8409ZM33.1657 16.8041C32.3817 16.9026 31.5613 17.1979 30.9309 17.6086C30.6458 17.7944 30.4126 17.9636 30.4126 17.9849C30.4126 18.0061 30.6074 18.2462 30.8456 18.5185C32.1209 19.9767 32.9487 21.5112 33.3879 23.2315C33.7707 24.7306 33.8113 25.2571 33.863 29.3925L33.9124 33.3348H36.6479H39.3835L39.8086 33.1109C40.3841 32.8076 40.8313 32.3263 41.0293 31.7971C41.1883 31.372 41.1937 31.1957 41.1937 26.4254C41.1937 21.7799 41.1845 21.4572 41.0351 20.8729C40.7832 19.888 40.3764 19.1941 39.5885 18.4055C38.8395 17.6557 38.0398 17.1738 37.1307 16.9242C36.5534 16.7657 34.0708 16.6905 33.1657 16.8041Z" fill="#6D83FF"/>
</svg>
