<svg width="36" height="36" viewBox="0 0 36 36" fill="none" xmlns="http://www.w3.org/2000/svg">
<path fill-rule="evenodd" clip-rule="evenodd" d="M20.807 0.159899C20.6765 0.247789 20.4978 0.426524 20.4099 0.557024C20.2505 0.793555 20.25 0.802133 20.25 3.4989C20.25 6.10369 20.2553 6.21296 20.3954 6.45919C20.6344 6.87945 20.8502 6.99673 21.375 6.9916C21.6307 6.98907 21.975 6.93261 22.1566 6.86335C23.2272 6.45505 24.0869 7.83303 23.2572 8.62742C22.9281 8.94249 22.5247 9.03544 22.1358 8.88582C21.9687 8.82155 21.658 8.75532 21.4453 8.73872C20.9984 8.70378 20.6862 8.86571 20.4099 9.27577C20.2504 9.51237 20.25 9.52018 20.25 12.2344C20.25 14.9486 20.2504 14.9564 20.4099 15.193C20.4978 15.3235 20.6765 15.5022 20.807 15.5901C21.0388 15.7463 21.0863 15.75 22.8971 15.75H24.75V15.9813C24.75 16.6589 25.1648 17.5644 25.7377 18.1373C27.3106 19.7101 29.9618 19.3534 31.0679 17.4203C31.3016 17.0118 31.5 16.351 31.5 15.9813V15.75H33.3529C35.1637 15.75 35.2112 15.7463 35.443 15.5901C35.5735 15.5022 35.7522 15.3235 35.8401 15.193L36 14.9558V8.93405C36 2.30668 36.0103 2.47803 35.5656 1.70073C35.2931 1.22457 34.7181 0.652508 34.2626 0.404586C33.5059 -0.00716374 33.6339 8.12727e-06 27.0659 8.12727e-06H21.0442L20.807 0.159899ZM2.46678 6.86166C1.66458 7.07738 0.859574 7.70759 0.432144 8.45473C-0.00569168 9.22001 3.66173e-06 9.13402 3.66173e-06 14.9562V20.25H2.24571H4.49135L4.53642 19.916C4.71607 18.5842 5.59238 17.4867 6.80266 17.0776C7.43646 16.8635 8.35784 16.8639 8.95915 17.0786C10.2187 17.5283 11.0289 18.5481 11.2135 19.916L11.2586 20.25H12.3793H13.5V18.3313C13.5 16.4814 13.5057 16.4014 13.6582 16.0989C13.7738 15.8697 13.9009 15.7426 14.1301 15.627C14.5211 15.4298 14.7502 15.428 15.1929 15.6184C16.0079 15.969 16.875 15.4679 16.875 14.6462C16.875 13.7874 16.024 13.274 15.1929 13.6316C14.7502 13.822 14.5211 13.8202 14.1301 13.6231C13.9009 13.5075 13.7738 13.3803 13.6582 13.1511C13.5014 12.8402 13.5 12.8103 13.5 9.79369V6.75001L8.17383 6.75465C3.7421 6.75851 2.78367 6.77644 2.46678 6.86166ZM7.33985 19.2589C6.80534 19.5848 6.6221 20.2039 6.88156 20.8071C7.07203 21.2498 7.0702 21.4789 6.87305 21.8699C6.75745 22.0991 6.63033 22.2262 6.40111 22.3418C6.09019 22.4986 6.06031 22.5 3.04369 22.5H3.66173e-06V27.7938C3.66173e-06 33.616 -0.00569168 33.53 0.432144 34.2953C0.707628 34.7768 1.22316 35.2924 1.70473 35.5679C2.47001 36.0057 2.38402 36 8.20617 36H13.5V33.7543V31.5086L13.166 31.4599C12.1587 31.3131 11.3546 30.8491 10.7987 30.094C9.94753 28.9378 9.94753 27.3122 10.7987 26.156C11.3502 25.4069 12.1965 24.9172 13.166 24.7864L13.5 24.7414V23.6207V22.5H11.5813C9.73132 22.5 9.65137 22.4943 9.34917 22.3418C8.98987 22.1605 8.7217 21.7541 8.71988 21.388C8.71924 21.2598 8.78611 20.9984 8.86845 20.8071C9.13071 20.1973 8.97595 19.6492 8.4382 19.2832C8.14303 19.0823 7.6474 19.0714 7.33985 19.2589ZM15.75 24.4187C15.75 26.2686 15.7443 26.3486 15.5918 26.6511C15.4762 26.8803 15.3491 27.0075 15.1199 27.123C14.7289 27.3202 14.4998 27.322 14.0571 27.1316C13.2421 26.781 12.375 27.2821 12.375 28.1038C12.375 28.9626 13.226 29.476 14.0571 29.1184C14.4998 28.928 14.7289 28.9298 15.1199 29.127C15.3491 29.2425 15.4762 29.3697 15.5918 29.5989C15.7486 29.9098 15.75 29.9397 15.75 32.9563V36H21.0438C26.866 36 26.78 36.0057 27.5453 35.5679C28.0268 35.2924 28.5424 34.7768 28.8179 34.2953C29.2557 33.53 29.25 33.616 29.25 27.7938V22.5H27.0043H24.7586L24.7135 22.834C24.4751 24.6 23.1632 25.8017 21.4453 25.8273C19.675 25.8538 18.2784 24.6274 18.0364 22.834L17.9913 22.5H16.8707H15.75V24.4187Z" fill="#6D83FF"/>
</svg>
