<svg width="38" height="36" viewBox="0 0 38 36" fill="none" xmlns="http://www.w3.org/2000/svg">
<path fill-rule="evenodd" clip-rule="evenodd" d="M19.836 0.0612904C16.0093 0.49901 12.5576 2.11354 10.0167 4.65453C8.8966 5.77467 8.18913 6.74107 8.18913 7.15106C8.18913 7.67716 8.34758 7.73142 9.88464 7.7317C12.1549 7.73216 13.7721 8.0241 15.4975 8.74506C16.4215 9.13111 17.1921 9.57003 19.1344 10.8165C20.73 11.8405 21.5746 12.1775 22.6991 12.2388C23.3256 12.273 23.6748 12.2445 24.0857 12.1259C24.647 11.9638 25.6596 11.4688 26.0597 11.1612L26.2828 10.9896L26.0597 10.8741C25.3859 10.5252 17.0996 5.6679 17.1287 5.63887C17.1965 5.57111 19.1036 5.79796 20.0589 5.98738C21.2997 6.23347 22.4687 6.62191 23.5477 7.14662C26.129 8.402 28.3197 10.8011 29.4883 13.6524C29.7985 14.4094 29.9489 14.5722 30.3378 14.5722C30.7199 14.5722 31.0006 14.2536 30.9298 13.8999C30.7509 13.0053 29.6132 10.9276 28.6311 9.70176L28.005 8.92043L28.2939 8.07901C28.8644 6.41761 28.7538 4.83101 27.9549 3.21278C27.2281 1.74043 25.8811 0.581378 24.4496 0.196351C23.7837 0.0171951 20.9473 -0.0658194 19.836 0.0612904ZM8.6311 12.9751C7.89608 13.7682 6.82078 15.5769 6.3128 16.8748C6.12191 17.3626 5.92815 17.7881 5.8823 17.8205C5.83644 17.853 5.60127 17.9058 5.35971 17.9378C4.75014 18.0186 3.6937 18.3906 3.06684 18.745C2.77758 18.9087 2.20572 19.3783 1.7962 19.7887C0.594064 20.9933 0.00298039 22.3551 2.22019e-05 23.9276C-0.00201156 24.962 0.13499 25.4956 0.695197 26.6361C2.20887 29.7179 4.64901 32.35 7.54471 34.0248C9.1303 34.942 11.3817 35.7011 13.212 35.9358C13.9471 36.0301 14.0738 36.0248 14.2778 35.8912C14.7129 35.6061 14.6755 35.3813 14.0101 34.28C12.99 32.5914 12.3504 30.9353 12.0756 29.2708C11.8964 28.1847 11.8793 27.484 11.9664 24.7872C12.0447 22.3622 11.9683 21.763 11.446 20.702C11.0528 19.9034 10.2099 19.0594 9.35836 18.612C9.00041 18.4239 8.68241 18.27 8.65172 18.27C8.62103 18.27 8.59588 20.6703 8.59588 23.604C8.59588 27.2066 8.56547 28.9075 8.50224 28.8443C8.3094 28.6515 7.38367 26.3698 7.12816 25.4574C6.72473 24.0173 6.61602 23.2452 6.61722 21.8291C6.61972 18.9257 7.32746 16.9742 9.51375 13.8419C9.84525 13.3669 9.86698 13.1625 9.61276 12.9083C9.3444 12.6399 8.91463 12.6691 8.6311 12.9751ZM35.3831 16.3056C35.3048 16.3946 35.126 16.6961 34.9858 16.9758C33.9683 19.0056 32.2134 21.0339 30.4727 22.1922C30.048 22.4748 28.9785 23.0846 28.0958 23.5476C26.2597 24.5104 25.8285 24.7835 25.2045 25.378C24.6017 25.9523 24.2569 26.4666 23.9782 27.2071C23.7302 27.8662 23.5919 29.0873 23.6999 29.6637L23.7613 29.991L27.8959 27.6364C30.1698 26.3414 32.2591 25.1513 32.5387 24.9917L33.0472 24.7015L32.8725 24.9756C31.6988 26.8158 30.0796 28.4996 28.3908 29.636C27.5008 30.2349 26.0025 30.915 25.0291 31.162C23.353 31.5871 22.0255 31.6538 19.6322 31.4329C19.0387 31.3782 18.955 31.3915 18.7771 31.5695C18.5377 31.8088 18.5237 32.1395 18.7416 32.4076C18.9622 32.6792 19.7381 32.7831 21.5842 32.7884C22.882 32.792 24.1362 32.6922 24.5989 32.5483C24.6995 32.517 24.8784 32.6714 25.1517 33.0256C26.2364 34.4317 28.2355 35.3739 30.1269 35.3706C32.2481 35.367 33.9013 34.4037 35.0961 32.475C36.269 30.5818 37.1588 28.3916 37.5975 26.3179C37.8193 25.2699 37.8433 24.9638 37.845 23.1695C37.8467 21.357 37.8249 21.0788 37.5972 20.0103C37.2186 18.2335 36.5318 16.4437 36.1498 16.2393C35.8805 16.0952 35.5427 16.1244 35.3831 16.3056Z" fill="#6D83FF"/>
</svg>
