<svg width="37" height="36" viewBox="0 0 37 36" fill="none" xmlns="http://www.w3.org/2000/svg">
<path fill-rule="evenodd" clip-rule="evenodd" d="M33.2227 0.0477422C28.2296 0.475102 22.9189 2.6382 18.6131 5.99836C17.6031 6.78656 16.2812 7.98117 15.6751 8.65357L15.1831 9.19934L14.6403 9.24258C11.4902 9.49352 9.34671 10.0735 6.81912 11.3587C4.88531 12.342 2.17013 14.4251 1.90695 15.1272C1.78348 15.4569 1.97754 15.8918 2.30618 16.0219C2.41059 16.0632 3.7459 16.2734 5.27344 16.4889C6.80098 16.7045 8.09388 16.8957 8.14655 16.9139C8.21166 16.9364 8.11462 17.0924 7.84364 17.401C7.39617 17.9107 7.30111 18.2037 7.47612 18.534C7.65984 18.8809 17.3766 28.5323 17.5957 28.5855C17.9014 28.6597 18.1011 28.5737 18.5946 28.155C18.8952 27.8999 19.0658 27.7962 19.0852 27.8566C19.1015 27.9075 19.2926 29.2148 19.5097 30.7617C19.924 33.7136 19.9491 33.8137 20.3271 34.0164C20.6515 34.1904 21.0068 34.0776 21.4266 33.6675C22.588 32.5327 23.8871 30.6913 24.7456 28.9629C25.8967 26.6451 26.5046 24.4481 26.7187 21.832L26.7993 20.8477L27.5901 20.0742C28.9817 18.7132 30.0898 17.383 31.1926 15.75C34.1555 11.3625 35.8437 6.47213 35.9793 1.88395L36.0202 0.498305L35.7711 0.249187L35.5219 0L34.5129 0.0118125C33.9579 0.0183516 33.3773 0.0344531 33.2227 0.0477422ZM26.9829 6.80737C27.5468 7.02162 27.9174 7.26342 28.3493 7.69873C29.0566 8.4117 29.3953 9.25432 29.3953 10.3008C29.3953 11.3598 29.054 12.197 28.3247 12.9262C27.5954 13.6555 26.7583 13.9969 25.6992 13.9969C24.6402 13.9969 23.803 13.6555 23.0737 12.9262C22.3445 12.197 22.0031 11.3598 22.0031 10.3008C22.0031 8.69667 22.9121 7.38042 24.4164 6.80646C25.1381 6.53105 26.2568 6.53147 26.9829 6.80737ZM6.43359 24.0806C5.60334 24.2634 4.84151 24.6543 4.2108 25.2212C3.58045 25.7878 2.85785 27.1297 1.94217 29.4344C1.29403 31.0657 0 34.9177 0 35.2158C0 35.6721 0.322805 36 0.772102 36C1.08155 36 4.87849 34.7283 6.53498 34.0699C8.01148 33.483 9.50541 32.7645 10.1275 32.3421C11.5192 31.397 12.2675 29.4915 11.923 27.7702C11.7812 27.0617 11.3783 26.195 10.9551 25.6883C9.85598 24.3723 8.04073 23.7268 6.43359 24.0806Z" fill="#6D83FF"/>
</svg>
