<svg width="46" height="38" viewBox="0 0 46 38" fill="none" xmlns="http://www.w3.org/2000/svg">
<path fill-rule="evenodd" clip-rule="evenodd" d="M18.317 0.0878996C17.5684 0.209272 16.8182 0.620871 16.2393 1.22782C15.3892 2.11904 15.1179 2.97292 15.1167 4.76202L15.116 5.66845L9.71423 5.69939C3.69843 5.73389 4.00102 5.70473 2.71198 6.3749C1.48172 7.01457 0.373542 8.48233 0.0962976 9.83975C0.0406353 10.1122 0 11.3688 0 12.8187V15.3266L11.2706 19.0831C17.4695 21.1492 22.6411 22.8396 22.7629 22.8396C22.8847 22.8396 28.0562 21.1492 34.2551 19.0831L45.5257 15.3266V12.8187C45.5257 11.3688 45.4851 10.1122 45.4295 9.83975C45.1502 8.47282 44.0538 7.02071 42.8138 6.37525C41.5254 5.70473 41.8278 5.73389 35.8115 5.69939L30.4098 5.66845L30.4091 4.76202C30.4078 2.97292 30.1365 2.11904 29.2865 1.22782C28.6861 0.598464 27.9546 0.210784 27.1198 0.0798081C26.4123 -0.0312498 19.0096 -0.0244032 18.317 0.0878996ZM26.4974 4.78932V5.6785H22.7629H19.0283V4.78932V3.90015H22.7629H26.4974V4.78932ZM0 25.8584C0 30.929 0.0316546 33.5669 0.0962976 33.8832C0.149204 34.1423 0.355759 34.6892 0.555379 35.0983C1.19389 36.4076 2.36503 37.3756 3.86791 37.8364C4.37856 37.993 5.18736 38 22.7629 38C40.3384 38 41.1472 37.993 41.6578 37.8364C43.0996 37.3943 44.3172 36.4102 44.9255 35.1954C45.5489 33.9502 45.5257 34.3089 45.5257 25.8886C45.5257 21.7174 45.4962 18.3048 45.4601 18.3048C45.424 18.3048 40.4714 19.9453 34.4545 21.9504L23.5144 25.596H22.7629H22.0113L11.0713 21.9504C5.05434 19.9453 0.101722 18.3048 0.0656211 18.3048C0.0295206 18.3048 0 21.7039 0 25.8584Z" fill="#6D83FF"/>
</svg>
