<svg width="46" height="38" viewBox="0 0 46 38" fill="none" xmlns="http://www.w3.org/2000/svg">
<path fill-rule="evenodd" clip-rule="evenodd" d="M32.8102 1.45658L30.2854 2.91351L27.8404 2.01L25.3954 1.10658L24.3396 1.10297C23.5328 1.10033 23.1697 1.13825 22.7999 1.2638C22.5337 1.35416 20.5541 2.43971 18.4007 3.67606C15.1411 5.5474 14.4027 6.0072 13.9917 6.42134C13.3316 7.08641 13.0925 7.68999 13.085 8.71007C13.0802 9.37365 13.1111 9.52463 13.3589 10.0496C13.6927 10.7568 14.257 11.3344 14.9406 11.6689C15.5873 11.9853 16.6732 12.0616 17.3552 11.8384C17.6055 11.7566 19.6356 10.6343 21.8667 9.34444C24.0978 8.05459 26.1213 6.93015 26.3632 6.84569C26.8951 6.66004 27.3918 6.64667 27.911 6.8039C28.1243 6.86857 31.9143 9.01107 36.3331 11.5651L44.3674 16.2087L44.59 16.0007C44.9143 15.6978 45.0598 15.3684 45.0598 14.9371C45.0598 14.5938 44.6629 13.8801 41.0081 7.65206C38.7796 3.85458 36.8969 0.656538 36.8241 0.545326C36.6118 0.220928 36.1701 0.000352515 35.7321 5.78509e-07C35.3784 -0.000351358 35.0578 0.159515 32.8102 1.45658ZM8.15352 2.13071C7.82569 2.3212 7.5686 2.77308 3.90978 9.59106C-0.291195 17.4194 -0.194324 17.2062 0.148198 17.8686C0.272695 18.1094 1.12042 18.7403 1.31944 18.7403C1.36572 18.7403 1.71414 18.2027 2.09353 17.5455C2.473 16.8885 2.94187 16.1634 3.13543 15.9342C5.13742 13.5643 8.63523 13.2515 11.0124 15.2299L11.5456 15.6736L12.0972 15.5353C12.4007 15.4592 13.0028 15.3975 13.4352 15.3982C15.9939 15.4024 18.0303 16.9177 18.7915 19.3836L18.9765 19.9829L19.5464 20.1755C20.3891 20.4601 20.9187 20.8034 21.6641 21.5483C22.3849 22.2685 22.8805 23.1226 23.0852 23.997L23.1933 24.4587L23.7265 24.6361C25.387 25.1887 26.7084 26.5188 27.2589 28.1917C27.4544 28.7858 27.494 29.0684 27.4999 29.9142C27.5096 31.2949 27.3527 31.7521 26.1436 33.865C25.6076 34.8018 25.1868 35.5859 25.2084 35.6075C25.38 35.7791 28.9909 37.7805 29.3275 37.8906C29.6285 37.9891 29.9488 38.0187 30.3922 37.989C31.516 37.9138 32.3572 37.3551 32.8484 36.3572C33.1091 35.8277 33.1376 35.6938 33.1337 35.0192C33.1287 34.1672 32.9593 33.6873 32.4648 33.1238C32.136 32.7493 32.0983 32.7342 33.4393 33.5116C34.8394 34.3234 35.6622 34.4133 36.7571 33.8743C37.7782 33.3717 38.4064 32.3853 38.4109 31.278C38.4139 30.5138 38.2061 29.8832 37.7913 29.3987C37.6198 29.1983 37.4989 29.0344 37.5226 29.0344C37.5464 29.0344 37.8364 29.1883 38.1674 29.3763C39.0099 29.8552 39.339 29.9424 40.1223 29.8944C40.9373 29.8445 41.513 29.5938 42.0534 29.0538C42.6377 28.4698 42.8993 27.8245 42.8993 26.9668C42.8993 25.7458 42.3811 24.9215 41.172 24.2189C40.794 23.9993 40.4847 23.8083 40.4847 23.7946C40.4847 23.7808 40.6331 23.8105 40.8146 23.8607C41.9702 24.1797 43.4289 23.453 44.0666 22.2406C44.2845 21.8263 44.311 21.6846 44.3102 20.9399C44.3094 20.232 44.2762 20.0366 44.0934 19.6641C43.6606 18.7815 43.5239 18.6929 35.2096 13.9011C30.8854 11.409 27.2954 9.35737 27.2319 9.34206C27.1684 9.32666 25.2643 10.3828 23.0005 11.6889C18.1385 14.4944 18.0003 14.5541 16.377 14.5514C15.4318 14.5499 15.1811 14.5176 14.5929 14.322C12.5899 13.6554 11.0555 11.9826 10.6099 9.97968C10.499 9.48134 10.4717 9.06474 10.5045 8.37081C10.5765 6.84164 11.0624 5.71052 12.1307 4.58503C12.5542 4.13868 12.6545 3.98454 12.5706 3.90896C12.5107 3.8552 11.7491 3.40279 10.878 2.90374C9.07093 1.86825 8.75797 1.77948 8.15352 2.13071ZM6.41398 16.6739C5.95409 16.8428 5.36169 17.2665 5.10197 17.6122C4.67876 18.1756 1.47667 23.8034 1.36079 24.1873C0.924921 25.6319 1.74159 27.273 3.16077 27.8044C3.72563 28.0159 4.65527 28.0347 5.20939 27.8457C5.42364 27.7727 5.80883 27.5541 6.06522 27.3599L6.53153 27.0069L6.46114 27.3388C6.1788 28.6712 6.86649 30.0795 8.09404 30.6823C8.52481 30.8939 8.69515 30.9261 9.3823 30.9261C10.0778 30.9261 10.233 30.8959 10.6581 30.678C10.9242 30.5416 11.2692 30.3075 11.4248 30.1579L11.7075 29.8859L11.6125 30.23C11.47 30.7459 11.5654 31.6583 11.8195 32.2101C12.4185 33.5113 13.9339 34.2239 15.2736 33.8344C15.8673 33.6617 16.1229 33.5169 16.5639 33.1029L16.8829 32.8036L16.7577 33.2726C16.5025 34.2299 16.831 35.3156 17.6037 36.0682C18.7712 37.2053 20.6291 37.1751 21.7657 36.0006C22.0134 35.7447 22.6205 34.7946 23.3725 33.4863C24.8903 30.8457 24.9316 30.7523 24.9325 29.9666C24.9338 28.748 24.3416 27.7889 23.259 27.256C22.7395 27.0002 22.59 26.9672 21.9659 26.9705C21.2007 26.9745 20.704 27.1404 20.1172 27.5879L19.8072 27.8244L20.2257 27.0155C20.6309 26.2325 20.6443 26.1821 20.6443 25.4429C20.6443 24.8039 20.607 24.6002 20.416 24.1953C20.127 23.5826 19.5815 23.0378 18.943 22.7243C18.5114 22.5124 18.3444 22.4805 17.6968 22.4862C16.8526 22.4937 16.3589 22.6651 15.8208 23.1375L15.5027 23.4169L15.956 22.5369C16.3885 21.6977 16.4094 21.625 16.4094 20.9678C16.4094 20.4127 16.365 20.1815 16.1812 19.78C15.8773 19.1161 15.3528 18.5645 14.7309 18.2542C14.2923 18.0355 14.1173 17.9996 13.4736 17.9963C12.847 17.993 12.6472 18.0293 12.2418 18.2203C11.5549 18.5438 11.2434 18.8376 10.7674 19.611L10.3501 20.2891V19.4927C10.3501 18.7985 10.3185 18.6319 10.1038 18.1945C9.79521 17.5663 9.1334 16.9603 8.4949 16.7214C7.92784 16.5092 6.92456 16.4863 6.41398 16.6739Z" fill="#6D83FF"/>
</svg>
