<svg width="41" height="38" viewBox="0 0 41 38" fill="none" xmlns="http://www.w3.org/2000/svg">
<path fill-rule="evenodd" clip-rule="evenodd" d="M19.1264 0.0305463C13.9886 0.348376 9.32489 3.54029 7.12023 8.24776C6.53274 9.50215 6.11786 10.8488 5.94407 12.0652C5.89771 12.3899 5.8423 12.7654 5.82105 12.8997L5.78233 13.144L5.08708 13.1891C3.52603 13.2901 2.01182 14.0986 1.09233 15.3217C0.656832 15.9011 0.424166 16.348 0.182292 17.07C0.00550967 17.5977 0 17.6979 0 20.369V23.1239L0.221646 23.7536C0.846207 25.5279 2.35728 26.9396 4.09715 27.3744C4.76099 27.5403 6.10118 27.6328 6.82987 27.5632C7.4956 27.4995 7.83617 27.347 8.09883 26.9947C8.26349 26.7739 8.26475 26.7303 8.30812 19.8714C8.35479 12.4701 8.34747 12.6091 8.77416 11.0883C9.12473 9.83887 9.83973 8.38872 10.623 7.3385C12.4132 4.93786 15.0303 3.3066 18.0245 2.72493C19.0351 2.52863 21.1384 2.53005 22.1961 2.72785C26.677 3.56563 30.2417 6.81949 31.4802 11.2024C31.8671 12.5715 31.8664 12.5561 31.9125 19.8714C31.9555 26.6786 31.9583 26.7755 32.1182 26.9947C32.2073 27.1168 32.4375 27.2993 32.6298 27.4002C32.966 27.5766 33.0302 27.5821 34.3174 27.5449C35.8545 27.5004 36.2959 27.4078 37.2551 26.9283C38.4961 26.3079 39.5159 25.1277 39.9985 23.7536L40.2196 23.1239L40.2449 20.6122C40.2662 18.4903 40.2498 18.0077 40.1387 17.5031C39.6124 15.112 37.5639 13.3465 35.1335 13.1891L34.4383 13.144L34.3992 12.8997C34.3777 12.7654 34.3217 12.3821 34.2747 12.048C34.1084 10.8646 33.5441 9.09939 32.9605 7.93677C31.5974 5.2209 29.244 2.85851 26.5655 1.51721C24.26 0.362701 21.7775 -0.133406 19.1264 0.0305463ZM5.28189 29.214C5.45505 30.1806 6.02089 31.519 6.6549 32.4615C7.09804 33.1204 8.2908 34.304 8.93355 34.7225C10.4441 35.7063 11.9238 36.1503 13.6922 36.1503H14.6793V35.4531V34.7559L13.6364 34.7117C12.3839 34.6588 11.6197 34.4772 10.6258 33.9965C9.09207 33.2548 7.9614 32.0993 7.24129 30.5377C7.09764 30.2264 6.92629 29.7645 6.86041 29.5114C6.79453 29.2583 6.72928 29.0415 6.71551 29.0297C6.70165 29.0178 6.36194 28.9903 5.96052 28.9684L5.23073 28.9286L5.28189 29.214ZM17.9064 32.9945C17.1922 33.221 16.5791 33.7521 16.2624 34.4187C15.9856 35.0015 15.977 35.9252 16.2434 36.4759C16.5257 37.0597 16.9195 37.4576 17.495 37.7409L18.0214 38H20.1105H22.1995L22.7258 37.7409C23.3011 37.4576 23.695 37.0596 23.9772 36.4759C24.2436 35.9252 24.235 35.0015 23.9582 34.4187C23.7107 33.8976 23.2793 33.4533 22.7471 33.1712L22.3535 32.9626L20.2284 32.9473C19.0595 32.939 18.0147 32.9602 17.9064 32.9945Z" fill="#6D83FF"/>
</svg>
