<svg width="36" height="36" viewBox="0 0 36 36" fill="none" xmlns="http://www.w3.org/2000/svg">
<path d="M24.8571 16.6971C24.8571 15.6857 24.7371 14.7086 24.6171 13.7143H30.4114C30.5486 14.28 30.6686 14.8629 30.7371 15.4286C31.9714 15.5486 33.1543 15.8229 34.2857 16.2857C33.7886 7.21714 26.3143 0 17.1429 0C7.66286 0 0 7.71429 0 17.1429C0 26.5714 7.71429 34.2857 17.1429 34.2857C18.6343 34.2857 20.0743 34.08 21.4286 33.72C20.0345 32.0222 19.1648 29.9552 18.9257 27.7714C18.3943 28.8171 17.8114 29.8286 17.1429 30.7886C15.72 28.7314 14.5714 26.4514 13.8686 24H19.1657C19.4571 22.7657 19.9543 21.6171 20.6229 20.5714H13.1314C12.96 19.44 12.8571 18.3086 12.8571 17.1429C12.8571 15.9771 12.96 14.8286 13.1314 13.7143H21.1543C21.3086 14.8286 21.4286 15.9771 21.4286 17.1429C21.4286 18 21.36 18.8571 21.2571 19.7143C22.2253 18.4605 23.4534 17.4312 24.8571 16.6971ZM3.87429 20.5714C3.6 19.4743 3.42857 18.3257 3.42857 17.1429C3.42857 15.96 3.6 14.8114 3.87429 13.7143H9.66857C9.53143 14.8457 9.42857 15.9771 9.42857 17.1429C9.42857 18.3086 9.53143 19.44 9.66857 20.5714H3.87429ZM5.28 24H10.2857C10.8857 26.1429 11.6571 28.2 12.6857 30.1029C9.56274 29.0268 6.93307 26.8598 5.28 24ZM10.2857 10.2857H5.28C6.92339 7.41777 9.55656 5.24784 12.6857 4.18286C11.6571 6.08571 10.8857 8.14286 10.2857 10.2857ZM13.8686 10.2857C14.5714 7.83429 15.72 5.53714 17.1429 3.48C18.5657 5.53714 19.7143 7.83429 20.4171 10.2857H13.8686ZM29.0057 10.2857H23.9486C23.4112 8.16276 22.6168 6.11332 21.5829 4.18286C24.7371 5.26286 27.36 7.44 29.0057 10.2857ZM36 26.5714C36 27.9771 35.5714 29.28 34.8514 30.36L32.9829 28.4914C33.2743 27.9086 33.4286 27.2571 33.4286 26.5714C33.4286 25.4348 32.977 24.3447 32.1733 23.541C31.3696 22.7372 30.2795 22.2857 29.1429 22.2857V24.8571L25.2857 21L29.1429 17.1429V19.7143C32.9314 19.7143 36 22.7829 36 26.5714ZM29.1429 28.2857L33 32.1429L29.1429 36V33.4286C25.3543 33.4286 22.2857 30.36 22.2857 26.5714C22.2857 25.1657 22.7143 23.8629 23.4343 22.7829L25.3029 24.6514C25.0114 25.2343 24.8571 25.8857 24.8571 26.5714C24.8571 27.7081 25.3087 28.7982 26.1124 29.6019C26.9161 30.4056 28.0062 30.8571 29.1429 30.8571V28.2857Z" fill="#6D83FF"/>
</svg>
